<?xml version="1.0" encoding="utf-8"?>
<!-- Generator: Adobe Illustrator 19.0.0, SVG Export Plug-In . SVG Version: 6.00 Build 0)  -->
<svg version="1.1" id="layer" xmlns="http://www.w3.org/2000/svg" xmlns:xlink="http://www.w3.org/1999/xlink" x="0px" y="0px"
	 viewBox="-153 -46 652 652" style="enable-background:new -153 -46 652 652;" xml:space="preserve">
<style type="text/css">
	.st0{fill:#001F5B;}
</style>
<path class="st0" d="M463.1,248.4c0-0.3,0-0.3,0.4-0.3c0.6,0,1,0.5,1,1.1c0,0.3-0.1,0.6-0.3,0.7c-0.1,0.2-0.4,0.2-0.6,0.2
	c-0.5,0-0.5,0-0.5-0.2V248.4z M462.1,251.4c0,0.9,0,0.9-0.4,1l-0.2,0.1c0,0,0,0.2,0,0.2c0.4,0,0.8,0,1.1,0c0.4,0,0.7,0,1.1,0
	c0,0,0-0.2,0-0.2l-0.2-0.1c-0.4,0-0.4-0.1-0.4-1v-0.7c0-0.2,0-0.2,0.1-0.2c0.2,0,0.4,0.1,0.5,0.2c0.2,0.3,0.4,0.8,0.6,1
	c0.5,0.8,0.8,1,1.5,1c0.3,0,0.4,0,0.5-0.1c0.1,0,0.1-0.1,0-0.1c-0.1,0-0.3,0-0.4-0.2c-0.5-0.3-0.8-1-1.4-1.9c0-0.1-0.1-0.2,0-0.2
	c0.3-0.2,0.9-0.6,0.9-1.2c0-1.1-1.1-1.3-2.1-1.3c-0.7,0-1.2,0-1.8,0.1c0,0.1,0,0.2,0,0.3l0.2,0c0.4,0.1,0.4,0.1,0.4,0.9V251.4z
	 M463.7,254.8c2.7,0,4.6-2,4.6-4.6s-1.9-4.6-4.6-4.6c-2.7,0-4.7,2-4.7,4.6S461,254.8,463.7,254.8 M463.7,246.2
	c2.1,0,3.8,1.8,3.8,4.1c0,2.3-1.7,4-3.8,4c-2.2,0-3.9-1.8-3.9-4C459.8,248,461.5,246.2,463.7,246.2 M-13.3,280.8
	c0,0.3,0.1,0.7,0.2,0.8c3.7-0.1,6.6-0.2,9.4-0.2h8.1c4.8,0,10.4,0.1,13.7,0.2c0.8-1.7,2.1-6.4,2.4-9.3c-0.2-0.2-0.7-0.4-1-0.4
	c-0.3,0-0.4,0.1-0.5,0.2c-1.8,3.5-3.1,5.3-4.8,6.3c-1.7,1-3.6,1-6.3,1c-4.4,0-5.7-0.5-6.6-1.7c-0.9-1.1-1.1-3.1-1.1-6v-21.2
	c0-2.8,0.1-4.3,0.6-5.4c0.5-1.1,1.5-1.3,2.8-1.5l1.4-0.2c0.1-0.1,0.2-0.4,0.2-0.7c0-0.3-0.1-0.5-0.2-0.7c-2.9,0.1-5.9,0.2-8.7,0.2
	c-2.9,0-5.8,0-8.9-0.2c-0.1,0.2-0.3,0.4-0.3,0.7c0,0.3,0.1,0.5,0.2,0.6l1.6,0.2c1.4,0.2,2.3,0.5,2.9,1.5c0.5,1,0.6,2.6,0.6,5.4v22.5
	c0,2.8-0.1,4.3-0.6,5.4c-0.5,1-1.5,1.3-2.9,1.5l-2.1,0.3C-13.3,280.3-13.3,280.5-13.3,280.8 M22.5,280.6c-0.1,0.1-0.1,0.3-0.1,0.4
	c0,0.2,0.1,0.5,0.1,0.6c3.9-0.1,6.5-0.2,9.1-0.2h7c4.3,0,9.3,0.1,12.2,0.2c0.7-1.5,1.9-5.6,2.1-8.2c-0.1-0.2-0.4-0.3-0.7-0.3
	c-0.3,0-0.4,0.1-0.5,0.1c-2.9,6.1-5.2,6.5-9.8,6.5c-3.9,0-5.2-0.4-6-1.6c-0.7-1.1-0.9-2.9-0.9-5.4v-6.4c0-0.8,0-1.3,0.3-1.7
	c0.4-0.4,0.9-0.3,1.6-0.3h3.7c1.4,0,2.3,0.1,3.1,0.6c0.7,0.5,1,1.4,1.3,2.7l0.2,1.2c0.1,0.1,0.3,0.1,0.6,0.1c0.2,0,0.4,0,0.5-0.1
	c0,0,0.1,0,0.1,0c-0.1-1.7-0.2-3.6-0.2-5.6s0.1-3.9,0.2-5.6c0,0-0.1,0-0.1,0c-0.1-0.1-0.3-0.1-0.5-0.1c-0.2,0-0.5,0.1-0.6,0.1
	L45,259c-0.3,1.3-0.6,2.2-1.3,2.7c-0.7,0.5-1.7,0.6-3.1,0.6h-3.7c-0.7,0-1.2,0-1.6-0.4c-0.3-0.4-0.3-0.9-0.3-1.6v-9.4
	c0-1,0-1.5,0.3-2.1c0.4-0.5,1-0.4,1.9-0.4h4.3c2.7,0,4.4,0.7,5.6,1.8c0.8,0.8,1.5,2.4,2.1,4.3c0.1,0.1,0.4,0.1,0.6,0.1
	c0.3,0,0.5-0.1,0.6-0.2c-0.2-3.2-0.6-6.5-0.7-7.8c-1.2,0.1-3.8,0.1-6.8,0.1H31.4c-2.5,0-5.1,0-7.6-0.1c-0.1,0.1-0.2,0.4-0.2,0.6
	c0,0.2,0,0.4,0.1,0.5l1.2,0.2c1.2,0.2,2.1,0.5,2.5,1.4c0.5,0.9,0.5,2.2,0.5,4.7v20.1c0,2.5,0,3.8-0.5,4.7c-0.5,0.9-1.4,1.1-2.6,1.3
	l-2.4,0.4C22.6,280.5,22.5,280.5,22.5,280.6 M71.3,246.7c-4.1,3.4-7.1,8.5-7.1,15.7c0,7.4,3.2,12.2,7.5,15.5
	c4.2,3.1,10.1,4.5,16,4.5c4.5,0,8.7-1.3,12-2.2c0.8-1.4,1.7-4.8,2.1-9c-0.1-0.2-0.6-0.4-1-0.4c-0.2,0-0.4,0.1-0.5,0.1
	c-1.7,4.1-5.2,9.5-12.6,9.5c-3.7,0-7.4-1.7-10.1-4.9c-2.7-3.2-4.5-7.9-4.5-14c0-6.1,1.8-10.6,4.5-13.7c2.7-3,6.3-4.5,9.7-4.5
	c6,0,10,3.1,11.7,8.8c0.1,0.1,0.3,0.1,0.5,0.1c0.4,0,0.9-0.2,1-0.3c-0.5-3.3-0.7-7.5-0.7-9c-2.1-0.3-6.3-1.5-12-1.5h0
	C81.6,241.4,75.5,243.2,71.3,246.7 M162.1,264.2c-1.6,0-2.4,0-3-0.4c-0.7-0.4-0.7-1.2-0.7-2.1v-10.5c0-1.3,0-2,0.4-2.6
	c0.5-0.5,1.2-0.5,2.3-0.5c2.2,0,4.1,0.8,5.4,2.3c1.3,1.5,2,3.6,2,6.1c0,3.3-1,5.1-2,6.1C165.4,263.7,164.1,264.2,162.1,264.2
	L162.1,264.2z M163.9,268c1.2,2.8,2.5,5.5,4.2,8.3c2.3,3.8,5.2,5.5,10.1,5.5c1.6,0,3.6,0,4.5-0.1c0,0,0.2,0,0.2,0l0.2-0.2
	c0.1-0.1-0.3-0.2-0.3-0.4c0-0.2,0.1-0.4,0.1-0.5l-0.2,0c-0.2,0-0.4,0-0.6,0c-1.2,0-2.5-0.5-3.7-1.5c-2.7-2.3-4.9-6.4-8.5-13.6
	c-0.1-0.2-0.2-0.5-0.2-0.8c0-0.4,0.3-0.8,0.7-0.9c2.5-1.2,5.5-3.2,5.5-7.7c0-3.3-1.5-5.9-4.5-7.6c-1.9-1.2-5.8-1.9-10.3-1.9
	c-5.1,0-9.2,0.2-13.2,0.5c-0.1,0-0.2,0.3-0.2,0.6c0,0.3,0.1,0.5,0.1,0.5l1.4,0.2c1.1,0.2,2,0.5,2.4,1.5c0.3,1,0.4,2.5,0.4,5.2v19.1
	c0,2.5-0.1,3.8-0.5,4.8c-0.5,0.9-1.4,1.2-2.6,1.4l-1.3,0.2c0,0,0,0-0.1,0.1c0,0.1,0,0.3,0,0.4c0,0.2,0,0.5,0.1,0.6
	c2.7-0.1,5-0.2,7.7-0.2c2.5,0,4.9,0.1,7.7,0.2c0-0.2,0.1-0.4,0.1-0.6c0-0.2,0-0.4-0.1-0.5l-1.3-0.2c-1.2-0.2-2.1-0.5-2.6-1.4
	c-0.4-0.9-0.5-2.3-0.5-4.8v-6.6c0-0.5,0-1,0.5-1.3c0.4-0.3,0.9-0.3,1.9-0.3c0.1,0,0.1,0,0.1,0C162.2,265.8,163.3,266.4,163.9,268
	 M200.3,280c-2,0-3.7-0.5-4.8-1.7c-1.1-1.3-1.1-3.4-1.2-6.3v-19.7c0-1.7,0-2.7,0.4-3.3c0.6-0.7,1.6-0.9,3.1-0.9
	c4.9,0,8.8,1.5,11.4,4.2c2.6,2.8,3.9,6.7,3.9,11.7c0,3.7-0.8,7.7-2.8,10.8C208.4,277.9,205.1,280,200.3,280L200.3,280z M198.2,281.7
	c5.5,0,9.8-0.7,13.4-2.5c6.1-3,9.4-8.7,9.4-15.7c0-6.6-3.7-12.8-10.7-15.3c-3.6-1.3-8-1.8-12.4-1.8c-5.7,0-9.9,0.2-14.4,0.5
	c0,0,0,0-0.1,0c0,0.1-0.1,0.3-0.1,0.5c0,0.1,0.1,0.3,0.1,0.4c0,0.1,0.1,0.1,0.1,0.1l0.9,0.1c1.3,0.1,2.2,0.6,2.5,1.6
	c0.4,1,0.4,2.6,0.4,5.2V274c0,2.5,0,3.8-0.5,4.8c-0.5,1-1.4,1.2-2.6,1.4l-1.5,0.2c-0.1,0.2-0.2,0.4-0.2,0.7c0,0.2,0.1,0.4,0.1,0.5
	c3-0.1,5.7-0.2,8.2-0.2C193.1,281.4,195.7,281.7,198.2,281.7 M245.6,247.4c7,0.1,11.1,7.8,11.1,17.1c0,4.4-0.7,8.4-2.3,11.3
	c-1.6,2.9-4.2,4.8-7.8,4.8h0c-4.6,0-7.5-2.8-9.2-6.3c-1.7-3.5-2.3-7.9-2.3-11.2c0-4.5,0.9-8.4,2.7-11.2
	C239.5,249.1,242.2,247.4,245.6,247.4 M227.3,264.3c0,11.1,7.6,18,18.3,18c11.4,0,19-6.8,19-18.4c0-10.7-7.5-18.1-18.5-18.1
	C235,245.8,227.3,253.8,227.3,264.3 M124.8,247.4c7,0.1,11.1,7.8,11.1,17.1c0,4.4-0.7,8.4-2.3,11.3c-1.6,2.9-4.2,4.8-7.9,4.8h0
	c-4.6,0-7.5-2.8-9.2-6.3c-1.7-3.5-2.3-7.9-2.3-11.2c0-4.5,0.9-8.4,2.7-11.2C118.7,249.1,121.3,247.4,124.8,247.4 M106.4,264.3
	c0,11.1,7.6,18,18.3,18c11.4,0,19-6.8,19-18.4c0-10.7-7.5-18.1-18.5-18.1C114.2,245.8,106.4,253.8,106.4,264.3 M275.6,254
	c1,0.9,2.8,3.2,6,7l12.4,15.4c1.2,1.5,2.3,3,3,4c0.6,0.8,1,1.4,1.2,1.7c1,0,2.3-0.5,2.6-0.9c-0.1-1.8-0.1-5.2-0.1-8.6v-12.9
	c0-4.4,0.2-8.4,0.8-10c0.6-1.3,1.8-1.8,3.2-2l0.8-0.1c0-0.1,0.1-0.3,0.1-0.6c0-0.2,0-0.4-0.1-0.6c-2,0.1-3.9,0.1-5.8,0.1
	c-2.2,0-4.3,0-7-0.1c0,0.1-0.1,0.3-0.1,0.6c0,0.2,0.1,0.4,0.1,0.5l1.3,0.2c1.5,0.2,2.9,0.6,3.4,2c0.6,1.6,0.8,5.6,0.8,10v7.4
	c0,1,0,1.9-0.3,2.5l-0.3,0.6l-0.4-0.4c-1.3-1.3-2.8-3.2-5.2-6l-4.5-5.3c-4.6-5.5-8.1-9.5-8.9-12.1c-1.1,0.1-2.5,0.1-4.2,0.1
	c-2.1,0-4.8,0-7.3-0.1c0,0-0.1,0-0.1,0.1c0,0.1-0.1,0.3-0.1,0.5c0,0.2,0,0.4,0.1,0.5l1.4,0.2c1.9,0.2,2.9,1,3.3,2.1
	c0.4,0.8,0.4,1.8,0.4,4.7v13.7c0,4.4-0.2,8.4-0.8,10c-0.5,1.3-1.8,1.8-3.3,2l-0.7,0.2c-0.1,0.1-0.1,0.3-0.1,0.5
	c0,0.2,0.1,0.4,0.1,0.6c1.9-0.1,3.9-0.2,5.8-0.2c2.1,0,4.2,0.1,7,0.2c0-0.2,0.1-0.4,0.1-0.6c0-0.2,0-0.4-0.1-0.5l-1.4-0.2
	c-1.4-0.2-2.8-0.6-3.4-2c-0.7-1.6-0.8-5.6-0.9-10v-10.5c0.1-2,0-2.9,0.4-3.6l0.2-0.5 M334,259.7c-1.5,0-2.3,0-2.9-0.3
	c-0.6-0.4-0.6-1-0.6-1.8v-10c0-1.3,0-2.2,0.4-2.8c0.6-0.7,1.4-0.7,2.8-0.7c2.1,0,4.1,0.7,5.5,2c1.4,1.4,2.3,3.5,2.3,6.2
	c0,1.9-0.5,3.7-1.8,5.1C338.6,258.9,336.6,259.7,334,259.7L334,259.7z M331.3,277.4c-0.8-1.4-0.9-3.4-0.9-5.8v-7.1
	c0-1.2,0-1.9,0.6-2.4c0.6-0.5,1.5-0.4,3.1-0.4c2.9,0,5.3,1,6.8,2.6c1.6,1.7,2.3,4,2.3,6.7c0,2.5-0.6,4.7-1.8,6.2
	c-1.2,1.6-3,2.5-5.4,2.5H336C333.7,279.7,332.1,278.8,331.3,277.4 M345.1,280.2c3.6-1.3,6.8-4.3,6.8-9.6v-0.1
	c-0.1-5.7-3.9-8.6-8.6-9.7c-0.3,0-0.5-0.1-0.7-0.2c-0.2-0.1-0.4-0.3-0.4-0.6c0-0.5,0.3-0.6,0.6-0.7c0.3-0.2,0.6-0.3,0.9-0.3
	c1.8-0.5,5.8-2.4,5.8-7.2c0-3.4-1.5-5.8-3.9-7.3c-2.5-1.5-6.3-2.2-12.1-2.2c-6,0-10.4,0.3-15,0.6c-0.1,0-0.1,0-0.2,0.1
	c0,0.1-0.1,0.3-0.1,0.5c0,0.2,0,0.4,0.1,0.5c0,0.1,0.1,0.2,0.1,0.2l1.5,0.2c1.3,0.2,2.2,0.5,2.6,1.6c0.3,1.1,0.4,2.8,0.4,5.8v21.4
	c0,2.7-0.1,4.2-0.6,5.2c-0.6,1-1.5,1.3-2.9,1.6l-1.7,0.4c0,0,0,0,0,0.1c0,0.1-0.1,0.3-0.1,0.5c0,0.3,0.1,0.6,0.2,0.7
	c3.3-0.1,6.2-0.2,9.2-0.2c1.8,0,4.1,0.3,6.2,0.3C336.8,281.7,341.4,281.5,345.1,280.2 M354.8,280.9c0,0.2,0.1,0.6,0.2,0.7
	c3.3-0.1,5.9-0.2,8.3-0.2h7.2c4.3,0,9.3,0.1,12.2,0.2c0.7-1.5,1.9-5.6,2.2-8.2c-0.2-0.2-0.6-0.3-0.9-0.3c-0.2,0-0.3,0-0.4,0.1
	c-1.5,3.1-2.7,4.8-4.2,5.7c-1.5,0.9-3.2,0.9-5.7,0.9c-3.9,0-5.1-0.4-5.9-1.5c-0.8-1-1-2.8-1-5.4V254c0-2.5,0-3.9,0.5-4.8
	c0.5-1,1.4-1.2,2.6-1.4l1.3-0.2c0-0.1,0.2-0.4,0.1-0.6c0-0.2-0.1-0.4-0.1-0.5c-2.7,0.1-5.2,0.1-7.8,0.1c-2.5,0-5.2,0-7.9-0.1
	c-0.2,0.1-0.2,0.3-0.2,0.6c0,0.2,0,0.4,0.1,0.5l1.5,0.2c1.2,0.1,2.1,0.4,2.5,1.4c0.4,0.9,0.5,2.3,0.5,4.8v20.1
	c0,2.5-0.1,3.9-0.5,4.8c-0.5,1-1.4,1.2-2.5,1.4l-1.9,0.2C354.8,280.5,354.8,280.7,354.8,280.9 M387.9,280.6c0,0.1,0,0.3,0,0.4
	c0,0.2,0,0.5,0.1,0.6c3.9-0.1,6.5-0.2,9.1-0.2h7c4.3,0,9.3,0.1,12.2,0.2c0.8-1.6,1.9-5.6,2.1-8.2c-0.1-0.2-0.4-0.3-0.7-0.3
	c-0.2,0-0.4,0.1-0.5,0.1c-2.9,6.2-5.1,6.5-9.8,6.5c-3.9,0-5.2-0.4-6-1.6c-0.7-1.1-0.9-2.9-0.9-5.4v-6.4c0-0.8-0.1-1.3,0.3-1.7
	c0.4-0.4,0.9-0.3,1.6-0.3h3.7c1.4,0,2.3,0.1,3.1,0.6c0.7,0.5,1,1.4,1.3,2.7l0.2,1.2c0.1,0.1,0.4,0.1,0.6,0.1c0.2,0,0.4,0,0.5-0.1
	c0.1,0,0.1,0,0.1,0c-0.1-1.7-0.2-3.6-0.2-5.6c0-2,0.1-3.9,0.2-5.6c0,0,0,0-0.1,0c-0.1-0.1-0.3-0.1-0.5-0.1c-0.2,0-0.5,0.1-0.6,0.1
	l-0.2,1.2c-0.3,1.3-0.6,2.2-1.3,2.7c-0.7,0.5-1.7,0.6-3.1,0.6h-3.7c-0.8,0-1.2,0-1.6-0.4c-0.4-0.4-0.3-0.9-0.3-1.6v-9.4
	c0-1-0.1-1.5,0.3-2.1c0.4-0.5,1-0.4,1.9-0.4h4.3c2.7,0,4.4,0.7,5.6,1.8c0.8,0.8,1.5,2.4,2.1,4.3c0.1,0.1,0.4,0.1,0.6,0.1
	c0.3,0,0.6-0.1,0.6-0.2c-0.2-3.2-0.6-6.5-0.6-7.8c-1.2,0.1-3.9,0.1-6.9,0.1h-11.4c-2.6,0-5.1,0-7.6-0.1c-0.1,0.1-0.2,0.4-0.2,0.6
	c0,0.2,0,0.4,0.1,0.5l1.2,0.2c1.2,0.2,2.1,0.5,2.6,1.4c0.4,0.9,0.5,2.2,0.5,4.7v20.1c0,2.5,0,3.8-0.5,4.7c-0.5,0.9-1.4,1.1-2.6,1.3
	l-2.4,0.4C388,280.5,388,280.5,387.9,280.6 M425.1,267.5c0,5.9,1.2,9.7,3.9,11.9c2.8,2.3,6.3,3,10.4,3c4.3,0,8.1-1.3,10.3-3.8
	c2.9-3.1,3.3-7.7,3.3-12.7v-6c0-4.4,0.2-8.5,0.8-10c0.6-1.3,1.8-1.7,3.2-2l0.8-0.2c0-0.1,0.1-0.3,0.1-0.5c0-0.2,0-0.4-0.1-0.5
	c-2,0.1-3.9,0.1-5.8,0.1c-2.2,0-4.2,0-7-0.1c-0.1,0.1-0.1,0.3-0.1,0.5c0,0.2,0,0.4,0.1,0.5l1.3,0.3c1.4,0.2,2.8,0.6,3.4,2
	c0.6,1.6,0.8,5.6,0.8,10v6.5c0,3.7-0.6,7.1-2,9.7c-1.4,2.6-3.8,4.2-7.4,4.1c-4.2,0-6.7-1.8-7.9-4.5c-1.3-2.6-1.4-6-1.4-9.2V254
	c0-2.5,0.1-3.9,0.5-4.8c0.4-1,1.4-1.2,2.6-1.4l1.1-0.2c0-0.1,0.1-0.3,0.1-0.5c0-0.2-0.1-0.4-0.1-0.5c-2.5,0.1-5.1,0.1-7.7,0.1
	c-2.5,0-5.2,0-7.7-0.1c-0.1,0.1-0.2,0.3-0.2,0.5c0,0.2,0,0.4,0.1,0.5l1.2,0.3c1.2,0.2,2.1,0.4,2.6,1.4c0.4,0.9,0.5,2.3,0.5,4.8
	 M-107.7,273.3c-1,0.4-1.1,0.3-1.4-0.2l-0.1-0.2c-0.1-0.1-0.3,0-0.3,0.1c0.2,0.5,0.4,0.9,0.5,1.4c0.2,0.5,0.4,0.9,0.5,1.5
	c0.1,0,0.3,0,0.3-0.1l-0.1-0.3c-0.1-0.5-0.1-0.6,0.9-1l3.7-1.4c1-0.4,1.1-0.3,1.3,0.1l0.2,0.3c0.1,0.1,0.3,0,0.3-0.2
	c-0.2-0.4-0.4-0.9-0.6-1.4l-0.4-1.1c-0.2-0.6-0.5-1.1-0.6-1.5c-0.2-0.4-0.3-0.8-0.4-1c-0.3,0-1.2,0-1.6,0.1c0,0.1,0,0.3,0.1,0.3
	c1.2,0.1,1.3,0.2,1.8,1.4c0.3,0.8,0.3,1,0.2,1.2c-0.1,0.2-0.5,0.4-0.9,0.6L-107.7,273.3z M-105.8,266.3c1.1-0.1,1.2,0,1.3,0.5
	l0.1,0.4c0.1,0.1,0.3,0,0.3-0.1c-0.1-0.5-0.1-1.2-0.2-1.6l-0.1-1.3c0-0.6-0.1-1.2-0.1-1.7c-0.1-0.5-0.1-0.8-0.1-1
	c-0.3-0.2-1.1-0.3-1.6-0.4c-0.1,0.1-0.1,0.3,0,0.4c0.9,0.3,1.2,0.5,1.3,1.9c0.1,0.9,0,1.1-0.1,1.3c-0.1,0.2-0.5,0.2-1,0.3l-1.3,0.1
	c-0.3,0-0.3,0-0.3-0.2l-0.1-0.5c-0.1-0.9-0.1-1.1,0.4-1.3l0.4-0.1c0-0.1,0-0.3-0.1-0.3c-0.3,0.1-0.7,0.1-1.1,0.1
	c-0.4,0-0.8,0.1-1.1,0.1c0,0.1,0,0.3,0,0.4l0.4,0c0.5,0,0.5,0.2,0.6,1.2l0,0.5c0,0.3,0,0.3-0.3,0.3l-1.8,0.2c-0.6,0-0.6,0-0.7-0.4
	l0-0.8c0-0.3,0-0.6,0-0.9c0-0.4,0.3-0.5,0.9-0.8c0-0.1,0-0.3-0.1-0.3c-0.5,0.1-1.3,0.3-1.4,0.3c0,0.1,0.1,0.8,0.2,1.5l0.2,2.1
	c0,0.3,0,0.5,0,0.7c0,0.3,0,0.5,0,0.7c0,0.1,0.3,0.1,0.3,0v-0.2c0-0.5,0-0.6,1.2-0.7L-105.8,266.3z M-106.4,247.9
	c-0.8-0.2-1.4-0.4-1.6-0.5c-0.1,0.1-0.1,0.1-0.2,0.3c-0.3,0.5-0.7,1.1-0.9,1.7c-0.4,1.1-0.5,2.2-0.3,3.2c0.3,1,0.9,1.9,2.1,2.3
	c1.3,0.5,2.4,0.2,3.2-0.4c0.8-0.5,1.3-1.3,1.7-2.4c0.2-0.7,0.4-1.4,0.4-1.7c0-0.1,0-0.3,0.1-0.4c-0.1-0.2-0.7-0.8-1.3-1.1
	c-0.1,0-0.2,0.2-0.2,0.3c0.6,0.5,1.1,1.4,0.6,2.7c-0.5,1.3-2.1,2.3-4.1,1.5c-2-0.8-2.4-2.4-1.9-3.7c0.5-1.4,1.5-1.5,2.2-1.4
	C-106.4,248.2-106.4,248-106.4,247.9 M-98.4,240.5c1.6,1.4,1.6,3.7,0.2,5.3c-1.7,1.9-3.9,1.8-5.3,0.6c-1.6-1.4-1.7-3.7-0.2-5.4
	C-102,239.1-99.8,239.3-98.4,240.5 M-102.7,245.1c1.1,1,3,1.8,4.2,0.4c0.9-1,0.9-2.3-0.7-3.7c-1.2-1.1-3.1-1.7-4.2-0.4
	C-104.2,242.2-104.5,243.6-102.7,245.1 M-96.6,237c-0.5-0.9-0.6-1-1-0.8l-0.3,0.1c-0.1,0-0.2-0.2-0.1-0.3c0.5-0.4,1.3-0.9,2.2-1.3
	c0.8-0.4,1.4-0.7,2-0.7c0.6,0,1.3,0.2,1.6,0.9c0.5,0.8,0,1.6-0.4,2.1c0,0.1,0,0.1,0.1,0.1c1.5,0.8,2.4,1.3,3.1,1.4
	c0.4,0.1,0.7,0,0.8-0.1c0,0,0.1,0.1,0.1,0.2c-0.1,0.1-0.3,0.2-0.6,0.4c-0.9,0.5-1.6,0.4-2.7-0.1c-0.5-0.2-1-0.6-1.4-0.8
	c-0.3-0.2-0.5-0.1-0.8,0c-0.3,0.2-0.3,0.2-0.2,0.4l0.6,1.2c0.5,1,0.7,1,1.1,0.7l0.2-0.1c0.1,0,0.2,0.2,0.1,0.3
	c-0.4,0.2-0.9,0.4-1.3,0.7c-0.4,0.2-0.9,0.5-1.3,0.7c-0.1,0-0.2-0.1-0.2-0.3l0.2-0.1c0.4-0.3,0.5-0.4,0-1.4L-96.6,237z M-94.7,237.7
	c0.2,0.3,0.2,0.3,0.6,0.1c0.9-0.5,1.1-1.2,0.6-2.1c-0.4-0.7-1.2-1.1-2.1-0.6c-0.5,0.3-0.5,0.3-0.3,0.7L-94.7,237.7z M-88,233
	c-0.2-1-0.2-1.1-0.7-1.1l-0.2,0c-0.1-0.1-0.1-0.2,0-0.3c0.8-0.2,1.6-0.4,2.7-0.5c1-0.2,1.8-0.2,2.6-0.1c1.4,0.2,2.5,1.2,2.8,2.7
	c0.2,1.1-0.2,2.4-1.5,3.3c-0.7,0.5-1.6,0.8-2.6,0.9c-0.3,0.1-0.6,0.1-0.8,0.1c-0.3,0-0.5,0.1-0.7,0.1c-0.4,0.1-0.9,0.2-1.4,0.3
	c-0.1,0-0.1-0.2,0-0.3l0.2-0.1c0.5-0.1,0.6-0.2,0.4-1.3L-88,233z M-86.2,236.2c0.1,1,0.3,1.5,1.5,1.3c1.9-0.3,2.6-1.8,2.3-3.5
	c-0.4-2-1.8-2.8-3.6-2.5c-0.5,0.1-0.8,0.2-0.9,0.3c0,0.1,0,0.3,0,0.8L-86.2,236.2z M-70.7,235.3c-0.4,2-2.3,3.2-4.5,2.8
	c-2.4-0.5-3.5-2.4-3.2-4.2c0.4-2.1,2.3-3.3,4.6-2.9C-71.3,231.5-70.3,233.4-70.7,235.3 M-76.8,233.8c-0.3,1.4,0,3.5,1.8,3.9
	c1.2,0.2,2.4-0.4,2.8-2.5c0.3-1.6,0-3.5-1.8-3.9C-75,231.1-76.4,231.7-76.8,233.8 M-62,239.3c0.4-0.7,0.9-1.5,1.3-1.7
	c0.1-0.1,0.3,0,0.5,0.1l0.3,0.1c0.1,0,0.2-0.2,0.1-0.3c-0.4-0.2-0.6-0.3-1-0.6c-0.4-0.2-0.7-0.5-1-0.7c-0.1-0.1-0.2,0.1-0.2,0.2
	l0.2,0.2c0.2,0.2,0.3,0.3,0.3,0.5c0,0.4-0.5,1.2-0.9,1.9l-1.1,1.7c-0.1,0.1-0.1,0.2-0.2,0.2c0-0.1-0.3-1.6-0.5-2.3l-0.3-1.5
	c-0.1-0.6-0.4-2.3-0.3-2.8c-0.3-0.1-0.5-0.3-0.7-0.4c-0.2-0.1-0.8-0.5-1.1-0.7c-0.1,0-0.2,0.2-0.2,0.2l0.1,0.1
	c0.1,0.1,0.3,0.3,0.4,0.5c0.1,0.4,0,0.6-0.4,1.3l-1.4,2.1c-0.5,0.7-0.9,1.5-1.2,1.7c-0.2,0.1-0.4,0-0.5-0.1L-70,239
	c-0.1,0-0.2,0.2-0.1,0.3c0.3,0.2,0.6,0.3,1,0.6c0.4,0.2,0.7,0.5,1.1,0.7c0.1,0,0.2-0.1,0.2-0.2l-0.2-0.2c-0.2-0.2-0.4-0.3-0.4-0.5
	c0-0.4,0.5-1.2,0.9-1.9l1.1-1.7c0.3-0.5,0.4-0.6,0.4-0.5c0.1,0.2,0.2,0.7,0.4,1.8l0.7,3.8c0.2,1.2,0.3,1.6,0.3,1.9
	c0.1,0.1,0.3,0.1,0.4,0.1c0.1-0.2,0.8-1.3,0.9-1.6L-62,239.3z M-55.1,245.4c0.8-0.5,1-0.6,0.8-1.1l-0.1-0.3c0-0.1,0.1-0.2,0.2-0.1
	c0.3,0.4,0.7,1.1,1.3,2.2c0.5,0.8,0.7,1.5,0.7,2.1c0,0.6-0.2,1-0.8,1.4c-0.5,0.3-1.2,0.1-1.8-0.4c-0.1,0-0.1,0-0.1,0s0,0,0,0.1
	c0.3,0.8,0.3,1.9-0.7,2.4c-0.5,0.2-1,0.3-1.6,0.1c-0.6-0.2-1.1-0.8-1.7-1.9c-0.3-0.4-0.5-0.9-0.7-1.2c-0.2-0.4-0.5-0.9-0.8-1.3
	c0-0.1,0.2-0.2,0.3-0.2l0.1,0.2c0.3,0.4,0.4,0.5,1.4-0.1L-55.1,245.4z M-57.6,248.3c-0.9,0.5-1.1,0.7-0.7,1.6c0.4,0.7,1.1,1,1.9,0.6
	c1-0.5,1.1-1.5,0.5-2.6c-0.3-0.4-0.3-0.4-0.5-0.3L-57.6,248.3z M-55.5,247.1c-0.2,0.1-0.2,0.2,0,0.6c0.5,0.9,1.1,1.1,1.9,0.7
	c0.8-0.5,0.8-1.3,0.4-1.9c-0.3-0.5-0.3-0.5-0.7-0.3L-55.5,247.1z M-51,254.8c1-0.2,1.1-0.1,1.3,0.3l0.1,0.2c0,0.1,0.3,0,0.3-0.1
	c-0.1-0.5-0.2-1-0.4-1.4c-0.1-0.5-0.2-1-0.3-1.5c0-0.1-0.3,0-0.3,0v0.3c0,0.5,0,0.6-1,0.9l-3.8,0.9c-1.1,0.3-1.1,0.2-1.3-0.3
	l-0.1-0.3c-0.1-0.1-0.3,0-0.3,0.1c0.1,0.4,0.2,1,0.4,1.5l0.3,1.1c0.1,0.6,0.3,1.2,0.4,1.6c0.1,0.4,0.1,0.8,0.2,1
	c0.3,0.1,1.2,0.1,1.6,0.1c0-0.1,0-0.2,0-0.3c-1.2-0.3-1.3-0.4-1.5-1.6c-0.2-0.9-0.1-1.1,0-1.2c0.1-0.2,0.5-0.3,1-0.4L-51,254.8z
	 M-53.9,261.6c-1.1-0.1-1.2-0.2-1.2-0.7l0-0.4c-0.1-0.1-0.2-0.1-0.3,0c0,0.5,0,1.1-0.1,1.6l0,1.3c0,0.6-0.1,1.2-0.1,1.7
	c0,0.5,0,0.8-0.1,1.1c0.3,0.2,1.1,0.5,1.5,0.6c0.1-0.1,0.1-0.3,0-0.4c-0.8-0.4-1.1-0.7-1-2.1c0.1-0.9,0.1-1.1,0.3-1.2
	c0.2-0.1,0.5-0.1,1.1-0.1l1.4,0.1c0.3,0,0.3,0,0.3,0.3l0,0.5c0,1-0.1,1.1-0.5,1.2l-0.4,0.1c-0.1,0.1-0.1,0.3,0,0.3
	c0.3,0,0.7,0,1.1,0c0.4,0,0.8,0.1,1,0.1c0.1,0,0.1-0.3,0.1-0.4l-0.4-0.1c-0.4-0.1-0.4-0.3-0.4-1.3l0-0.5c0-0.3,0-0.3,0.3-0.3
	l1.8,0.1c0.6,0,0.6,0,0.6,0.5l0,0.7c0,0.3-0.1,0.6-0.1,0.9c-0.1,0.3-0.4,0.5-1,0.6c0,0.1,0,0.3,0,0.4c0.5-0.1,1.3-0.1,1.4-0.1
	c0-0.1,0-0.8,0-1.5l0.1-2.1c0-0.2,0-0.5,0-0.8c0-0.2,0-0.5,0.1-0.7c0-0.1-0.2-0.1-0.3-0.1l0,0.2c-0.1,0.5-0.1,0.6-1.3,0.5
	L-53.9,261.6z M-53.6,269.3c-1-0.4-1.8-0.4-2.3-0.1c-0.6,0.3-1.1,0.9-1.5,1.9c-0.3,0.7-0.4,1.5,0,2.3c0.3,0.7,1.1,1.2,2,1.6l1.2,0.5
	c0.8,0.3,1.6,0.6,1.9,0.9c0.1,0.2,0.1,0.4,0.1,0.6l0,0.3c0,0.1,0.2,0.1,0.3,0.1c0.1-0.4,0.2-0.7,0.4-1.1c0.1-0.4,0.3-0.8,0.5-1.1
	c0-0.1-0.1-0.2-0.2-0.1l-0.1,0.2c-0.1,0.2-0.3,0.4-0.4,0.4c-0.4,0.1-1.3-0.3-2-0.6l-1.2-0.5c-1.5-0.6-2.2-1.5-1.7-2.9
	c0.6-1.4,1.9-1.4,3.2-0.9l2.3,0.9c1,0.4,1,0.5,0.9,1l-0.1,0.3c0,0.1,0.2,0.1,0.3,0.1c0.1-0.5,0.3-0.9,0.5-1.4
	c0.2-0.4,0.4-0.9,0.6-1.3c0-0.1-0.1-0.2-0.2-0.1l-0.1,0.2c-0.2,0.5-0.3,0.5-1.3,0.1L-53.6,269.3z M-90,259.4v-1.1c0,0,0-0.1-0.1-0.1
	c-0.4,0.2-1.1,0.4-1.9,0.6c-0.1,0-0.1,0.2,0,0.2l0.5,0.1c0.4,0,0.4,0.3,0.4,0.9v2.9c0,0.9,0,0.9-0.6,1l-0.3,0.1c0,0.1,0,0.2,0,0.3
	c0.5,0,0.9,0,1.4,0c0.5,0,0.9,0,1.3,0c0.1,0,0.1-0.2,0-0.3l-0.2-0.1c-0.6,0-0.6-0.1-0.6-1V259.4z M-83.3,259.6
	c0,0.8-0.6,1.1-1.1,1.3c0.6,0.3,1.3,0.8,1.3,1.8c0,1-1,1.6-2,1.6c-1,0-2-0.4-2-1.5c0-0.8,0.6-1.3,1.3-1.5c-0.5-0.3-1.1-0.8-1.1-1.5
	c0-0.9,0.8-1.6,1.9-1.6C-84.1,258.2-83.3,258.7-83.3,259.6 M-84.1,263c0-0.7-0.5-1.2-1.4-1.6c-0.5,0.3-0.7,0.7-0.7,1.3
	c0.1,0.7,0.5,1.2,1.1,1.2C-84.6,263.9-84.1,263.5-84.1,263 M-86,259.5c0,0.6,0.7,1,1.3,1.2c0.4-0.3,0.6-0.6,0.6-1.1
	c0-0.5-0.4-1-0.9-1C-85.7,258.6-86,259-86,259.5 M-79.7,258.2c-1,0-2,0.7-2,1.9c0,1,0.7,1.6,1.5,1.6c0.4,0,0.7-0.1,0.9-0.3
	c0-0.1,0-0.2-0.1-0.2c-0.1,0-0.2,0-0.3,0c-0.6,0-1-0.8-1-1.6c0-0.8,0.5-1.2,0.9-1.2c0.7,0,1,0.9,1,2c-0.1,1.7-0.6,2.6-1.4,3.2
	c-0.4,0.3-0.8,0.5-1.4,0.7c-0.1,0.1,0,0.2,0,0.3c0.6-0.1,1.6-0.4,2.4-1c1.1-0.9,1.5-2,1.6-3c0-0.8-0.2-1.4-0.5-1.8
	C-78.5,258.5-79,258.2-79.7,258.2 M-75.2,258.4c-0.1,0-0.2,0.1-0.2,0.2l-0.5,1.8c0,0.3,0,0.3,0.2,0.3c1.1,0,2.5,0.3,2.5,1.6
	c0,1.3-1.4,1.9-2.8,2.1c-0.1,0.1,0,0.3,0.1,0.3c1.6-0.1,3.6-1.1,3.6-2.8c0-1.4-1.4-1.8-2.2-2l-0.7-0.1c-0.2,0-0.2-0.1-0.2-0.2
	l0.1-0.3c0-0.2,0-0.2,0.3-0.3l2-0.3c0.2-0.2,0.3-0.5,0.4-0.7c0-0.1,0-0.1-0.1-0.1L-75.2,258.4z M-96,287.6c-0.5,1-0.6,0.9-1.1,0.8
	l-0.1-0.1c-0.1,0-0.2,0.2-0.1,0.3c0.4,0.2,0.9,0.4,1.3,0.7c0.4,0.2,0.9,0.5,1.4,0.8c0.1,0,0.2-0.2,0.1-0.3l-0.3-0.2
	c-0.5-0.3-0.5-0.4,0-1.3l2.2-4.1c0.2-0.3,0.2-0.4,0.7-0.1c0.9,0.5,1,1.4,0.6,2.1c-0.4,0.8-1.1,1.2-2.1,0.9c0,0-0.1,0.1-0.1,0.3
	c0.1,0,0.2,0.1,0.3,0.1c0.8,0.4,2.3,0.8,3.1-0.6c0.4-0.6,0.3-1.3,0-1.8c-0.3-0.5-0.9-1-1.8-1.5c-0.9-0.5-1.4-0.8-2.2-1.1
	c-0.1,0-0.2,0.2-0.2,0.3l0.3,0.2c0.4,0.3,0.3,0.4-0.1,1.3L-96,287.6z M-87.9,290c-0.3-0.1-0.2-0.1-0.4,0.2l-0.7,1.1
	c-0.4,0.5-0.4,0.6,0,0.7l0.3,0.1c0,0.1,0,0.3-0.1,0.3c-0.3-0.1-0.7-0.2-1.1-0.3c-0.3-0.1-0.7-0.1-1-0.2c-0.1,0,0-0.2,0.1-0.3l0.3,0
	c0.4,0,0.5,0,0.7-0.4c0.2-0.2,0.4-0.6,0.8-1.1l2.3-3.3c0.2-0.3,0.4-0.5,0.4-0.7c0.4,0,0.9-0.3,0.9-0.3c0.1,0,0.1,0.1,0.2,0.1
	c0,0.5,0.1,1,0.1,1.5l0.5,4.6c0.1,0.7,0.1,0.8,0.6,1.1l0.1,0.1c0.1,0.1,0,0.3,0,0.3c-0.5-0.1-0.8-0.2-1.4-0.3
	c-0.5-0.1-1-0.2-1.3-0.3c-0.1-0.1,0-0.3,0-0.3l0.2,0c0.4,0,0.5,0,0.4-0.5l-0.2-1.5c0-0.3-0.1-0.3-0.4-0.4L-87.9,290z M-86.4,289.9
	c0.3,0.1,0.3,0.1,0.3-0.2l-0.2-1.3c0-0.6,0-0.8-0.1-0.9h0c0,0.1-0.2,0.3-0.5,0.7l-0.8,1.1c-0.2,0.3-0.1,0.3,0.1,0.3L-86.4,289.9z
	 M-80.4,288.4c-0.1-1-0.1-1.1-0.6-1.1h-0.3c-0.1-0.1-0.1-0.2,0-0.3c0.7-0.1,1.6-0.2,2.5-0.3c0.9-0.1,1.6,0,2.1,0.2
	c0.6,0.2,1,0.7,1.1,1.5c0,1-0.7,1.5-1.2,1.7c0,0,0,0.1,0,0.2c1,1.3,1.6,2.2,2.2,2.6c0.3,0.2,0.6,0.3,0.8,0.3c0,0,0,0.1,0,0.2
	c-0.1,0-0.4,0.1-0.7,0.1c-1.1,0.1-1.7-0.3-2.4-1.2c-0.4-0.4-0.7-1-1-1.4c-0.2-0.3-0.4-0.3-0.7-0.3c-0.3,0-0.3,0-0.3,0.2l0.1,1.3
	c0.1,1.1,0.2,1.2,0.7,1.2h0.2c0.1,0.1,0.1,0.3,0,0.3c-0.5,0-1,0-1.4,0.1c-0.5,0.1-1,0.1-1.5,0.1c-0.1,0-0.1-0.2,0-0.3l0.2,0
	c0.5-0.1,0.6-0.1,0.5-1.3L-80.4,288.4z M-79,289.8c0,0.3,0,0.4,0.5,0.3c1.1-0.1,1.5-0.6,1.5-1.6c-0.1-0.8-0.7-1.5-1.6-1.4
	c-0.6,0-0.6,0.1-0.6,0.5L-79,289.8z M-71,286.7c-0.4-1-0.3-1.1,0.2-1.3l0.2-0.1c0-0.1,0-0.3-0.1-0.3c-0.5,0.2-0.9,0.3-1.4,0.5
	c-0.5,0.2-0.9,0.3-1.4,0.4c0,0.1,0,0.2,0.1,0.3l0.2-0.1c0.5-0.1,0.6-0.1,1,1l1.2,3.7c0.3,1.1,0.2,1.1-0.2,1.3l-0.2,0.1
	c0,0.1,0,0.3,0.1,0.3c0.4-0.2,0.9-0.3,1.4-0.5c0.5-0.2,1-0.3,1.4-0.4c0.1-0.1,0-0.3-0.1-0.3l-0.2,0c-0.5,0.1-0.6,0.1-0.9-0.9
	L-71,286.7z M-65.5,290c0.2,0,0.9,0,1.8-0.5c1.4-0.8,1.8-2,1.2-3.1c-0.5-0.9-1.6-1.1-2.3-1l-0.8,0.1c-0.8,0.1-1.3-0.2-1.6-0.6
	c-0.3-0.5-0.3-1.1,0.5-1.6c0.8-0.5,1.5-0.1,1.9,0.3c0.1,0,0.3-0.1,0.3-0.2c-0.2-0.4-0.7-1-0.9-1.1c-0.5,0.2-0.9,0.3-1.4,0.6
	c-1.3,0.8-1.6,2-1.1,2.9c0.5,0.8,1.4,1,2.4,1l0.5,0c0.9,0,1.4,0.2,1.7,0.7c0.4,0.5,0.2,1.2-0.5,1.6c-0.9,0.6-2-0.1-2.5-0.5
	c-0.1,0-0.3,0.1-0.3,0.2C-66.3,289.4-65.8,289.9-65.5,290 M-115.3,262c0-6.1,1.5-11.8,4.2-16.8l-1.1-0.7c-2.9,5.2-4.6,11-4.6,17.4
	c0,6.4,1.7,12.3,4.6,17.6l1.2-0.7C-113.7,273.8-115.3,268.1-115.3,262 M-118,260c0.4-6.4,1.8-11.1,4.6-16.2l-0.9-0.5
	c-3,5.7-3.9,9.7-4.6,14.9L-118,260z M-120.1,256c0.6-4.3,2.4-9.7,4.5-13.4l-0.9-0.5c-2.2,4.4-3.7,8.4-4.4,12.4L-120.1,256z
	 M-121.9,252.4c0.7-3.1,2.4-7.9,4.2-11.1l-0.9-0.5c-1.9,3.4-3.1,6.8-4,10.2L-121.9,252.4z M-123.6,249.1c0.8-2.7,2.4-6.7,3.8-9
	l-0.9-0.5c-1.2,2.1-2.5,5-3.5,8.2L-123.6,249.1z M-125.2,246c0.5-1.5,1.9-5,3.2-7.1l-0.9-0.5c-1.1,1.8-2.3,4.9-3,6.4L-125.2,246z
	 M-131.6,233.3l5,9.7c1.1-2.5,1.6-3.7,2.6-5.4L-131.6,233.3z M-119,265.9c0.7,5.1,1.6,9.2,4.6,14.9l0.9-0.6c-2.7-5-4.2-9.8-4.6-16.2
	L-119,265.9z M-120.9,269.6c0.7,4,2.1,8,4.4,12.4l0.9-0.5c-2.2-3.7-3.9-9.1-4.5-13.4L-120.9,269.6z M-122.6,273
	c0.9,3.4,2.1,6.8,4,10.2l0.9-0.5c-1.9-3.1-3.6-8-4.2-11.1L-122.6,273z M-124.3,276.3c1,3.2,2.3,6.1,3.5,8.2l0.9-0.5
	c-1.4-2.3-3-6.3-3.8-9L-124.3,276.3z M-125.8,279.3c0.6,1.5,1.9,4.6,3,6.4l0.9-0.5c-1.3-2.1-2.7-5.7-3.2-7.1L-125.8,279.3z
	 M-124.1,286.4c-0.9-1.7-1.5-2.9-2.6-5.4l-5,9.7L-124.1,286.4z M-45.2,262c0,6.1-1.5,11.8-4.2,16.8l1.2,0.7
	c2.8-5.3,4.6-11.2,4.6-17.6c0-6.4-1.7-12.1-4.6-17.4l-1.2,0.7C-46.7,250.2-45.2,255.9-45.2,262 M-41.4,258.2
	c-0.7-5.1-1.7-9.2-4.6-14.9l-0.9,0.5c2.7,5.1,4.2,9.9,4.6,16.2L-41.4,258.2z M-39.5,254.5c-0.7-4-2.1-8-4.4-12.4l-0.9,0.5
	c2.2,3.7,3.9,9.1,4.5,13.4L-39.5,254.5z M-37.8,251.1c-0.9-3.4-2.2-6.8-4-10.2l-0.9,0.5c1.8,3.1,3.6,8,4.2,11.1L-37.8,251.1z
	 M-36.1,247.8c-1-3.2-2.3-6.1-3.5-8.2l-0.9,0.5c1.4,2.3,3,6.3,3.7,9L-36.1,247.8z M-34.6,244.8c-0.7-1.5-1.9-4.6-3-6.4l-0.9,0.5
	c1.3,2.1,2.7,5.7,3.2,7.1L-34.6,244.8z M-36.3,237.7c0.9,1.7,1.5,2.9,2.6,5.4l5-9.7L-36.3,237.7z M-42.4,264
	c-0.4,6.4-1.9,11.1-4.6,16.2l0.9,0.6c3-5.7,3.9-9.7,4.6-14.9L-42.4,264z M-40.3,268.1c-0.6,4.3-2.3,9.7-4.5,13.4l0.9,0.5
	c2.3-4.4,3.7-8.4,4.4-12.4L-40.3,268.1z M-38.5,271.6c-0.7,3.1-2.4,7.9-4.2,11.1l0.9,0.5c1.8-3.4,3.1-6.8,4-10.2L-38.5,271.6z
	 M-36.8,275c-0.8,2.7-2.4,6.7-3.7,9l0.9,0.5c1.2-2.1,2.5-5,3.5-8.2L-36.8,275z M-35.2,278.1c-0.5,1.5-1.9,5-3.2,7.1l0.9,0.5
	c1.1-1.8,2.3-4.9,3-6.4L-35.2,278.1z M-28.8,290.7l-5-9.7c-1,2.5-1.6,3.7-2.6,5.4L-28.8,290.7z M-80.2,297.1c-6,0-11.8-1.5-16.8-4.3
	l-0.6,1.2c5.2,2.9,11,4.5,17.4,4.5c6.4,0,12.3-1.7,17.5-4.5l-0.7-1.2C-68.4,295.6-74.1,297.1-80.2,297.1 M-82.1,299.8
	c-6.4-0.4-11.1-1.9-16.2-4.6l-0.5,0.9c5.6,3,9.7,3.9,14.9,4.6L-82.1,299.8z M-86.2,301.9c-4.3-0.6-9.7-2.3-13.4-4.5l-0.6,0.9
	c4.4,2.3,8.5,3.7,12.4,4.4L-86.2,301.9z M-89.8,303.8c-3.1-0.7-7.9-2.4-11-4.2l-0.5,0.9c3.4,1.9,6.8,3.1,10.2,4L-89.8,303.8z
	 M-93.1,305.4c-2.7-0.8-6.6-2.4-9-3.8l-0.5,0.9c2.1,1.2,5,2.5,8.2,3.5L-93.1,305.4z M-96.1,307c-1.5-0.5-5-1.9-7.1-3.2l-0.5,0.9
	c1.8,1.1,4.9,2.3,6.4,2.9L-96.1,307z M-108.8,313.5l9.7-5c-2.5-1-3.7-1.6-5.4-2.5L-108.8,313.5z M-76.3,300.8
	c5.2-0.7,9.3-1.6,14.9-4.6l-0.5-0.9c-5.1,2.7-9.9,4.2-16.2,4.6L-76.3,300.8z M-72.6,302.7c4-0.7,8.1-2.1,12.4-4.4l-0.5-0.9
	c-3.7,2.2-9.1,3.9-13.4,4.5L-72.6,302.7z M-69.2,304.5c3.4-0.9,6.8-2.2,10.2-4l-0.5-0.9c-3.1,1.8-7.9,3.6-11,4.2L-69.2,304.5z
	 M-65.9,306.1c3.1-1,6-2.3,8.2-3.5l-0.5-0.9c-2.3,1.4-6.3,3-9,3.8L-65.9,306.1z M-62.9,307.7c1.5-0.6,4.6-1.9,6.4-2.9l-0.5-0.9
	c-2.1,1.3-5.6,2.7-7.1,3.2L-62.9,307.7z M-55.8,305.9c-1.7,0.9-2.9,1.5-5.4,2.5l9.7,5L-55.8,305.9z M-80.2,227
	c6.1,0,11.8,1.6,16.8,4.3l0.7-1.2c-5.2-2.9-11.1-4.5-17.5-4.5c-6.4,0-12.2,1.7-17.4,4.5l0.6,1.2C-91.9,228.5-86.2,227-80.2,227
	 M-84,223.3c-5.1,0.7-9.2,1.6-14.9,4.6l0.5,0.9c5.1-2.7,9.9-4.2,16.2-4.6L-84,223.3z M-87.7,221.3c-4,0.7-8.1,2.1-12.4,4.4l0.6,1
	c3.6-2.2,9.1-3.9,13.4-4.5L-87.7,221.3z M-91.1,219.6c-3.4,0.9-6.8,2.2-10.2,4l0.5,0.9c3.1-1.8,7.9-3.6,11-4.2L-91.1,219.6z
	 M-94.4,218c-3.2,1-6,2.3-8.2,3.5l0.5,0.9c2.3-1.4,6.3-3,9-3.8L-94.4,218z M-97.3,216.4c-1.5,0.6-4.6,1.9-6.4,3l0.5,0.9
	c2.1-1.3,5.6-2.7,7.1-3.2L-97.3,216.4z M-104.5,218.1c1.7-0.9,2.9-1.5,5.4-2.6l-9.7-5l4.2,7.5 M-78.1,224.2
	c6.4,0.4,11.1,1.9,16.2,4.6l0.5-0.9c-5.7-3-9.7-3.9-14.9-4.6L-78.1,224.2z M-74.1,222.1c4.3,0.7,9.7,2.4,13.4,4.5l0.5-1
	c-4.3-2.3-8.4-3.7-12.4-4.4L-74.1,222.1z M-70.5,220.3c3.1,0.7,7.9,2.4,11,4.2l0.5-0.9c-3.4-1.9-6.8-3.1-10.2-4L-70.5,220.3z
	 M-67.2,218.7c2.7,0.8,6.7,2.4,9,3.8l0.5-0.9c-2.1-1.2-5-2.5-8.2-3.5L-67.2,218.7z M-64.1,217.1c1.5,0.5,5,1.9,7.1,3.2l0.5-0.9
	c-1.8-1.1-4.9-2.3-6.4-3L-64.1,217.1z M-51.4,210.6l-9.7,5c2.5,1.1,3.7,1.6,5.4,2.6L-51.4,210.6z M-87.4,246l5.5,9.5v-14.5
	c-0.1,0-0.2,0-0.3,0c-2.5,0.2-4.8,0.9-7,1.9c-1,0.5-2.1,1.1-3,1.8c-5.5,3.8-9,10.1-9,17.3c0,7.2,3.6,13.5,9.1,17.3
	c1,0.7,2,1.3,3,1.8c2.1,1,4.4,1.7,6.8,1.9c0.1,0,0.2,0,0.4,0v-14.4l-5.4,9.4c-1.1-0.5-2.1-1.1-3.1-1.8c-4.4-3.2-7.4-8.4-7.4-14.3
	c0-5.9,2.9-11,7.3-14.2C-89.5,247.1-88.5,246.5-87.4,246 M-65,270.8c-1.2,2.1-2.9,4-4.9,5.4c-0.9,0.7-2,1.3-3.1,1.8l-5.4-9.4V283
	c0.1,0,0.1,0,0.1,0c2.5-0.2,4.9-0.9,7-1.9c1.1-0.5,2.1-1.1,3.1-1.8c2-1.4,3.7-3.1,5.1-5.1c0.8-1.1,1.5-2.3,2-3.5l-5.1-8.8l5-8.7
	c-0.6-1.2-1.3-2.4-2-3.5c-1.4-1.9-3.1-3.6-5-5c-0.9-0.7-2-1.3-3-1.8c-2.2-1-4.5-1.7-7-1.9c-0.1,0-0.2,0-0.3,0v14.5l5.5-9.5
	c1.1,0.5,2.1,1.1,3,1.7c1.9,1.4,3.6,3.2,4.8,5.3l-5.1,8.8 M-63.8,357.6v-48.1l-16.2-8l-16.3,8v48.1l16.4-8L-63.8,357.6z M-80,222.1
	l16.2-8v-19.4h-32.5V214L-80,222.1z M-107.4,239.9l-4.3-3.1v5.9l1.6,0.9C-109.2,242.3-108.3,241-107.4,239.9 M-102.4,234.8
	c1.1-0.9,2.3-1.8,3.8-2.7l-1-1.6h-5.9L-102.4,234.8 M-103.1,235.4l-3.6-4.9h-5.1v5.3l4.9,3.5C-105.7,237.8-104.4,236.6-103.1,235.4
	 M-102.3,289.3l-3.1,4.3h5.9l0.9-1.6C-100,291.1-101.2,290.2-102.3,289.3 M-107.4,284.3c-0.9-1.1-1.8-2.4-2.7-3.8l-1.6,1v6
	L-107.4,284.3 M-106.8,284.9l-5,3.5v5.1l5.3,0l3.5-4.9C-104.4,287.6-105.6,286.3-106.8,284.9 M-53,284.1l4.4,3.1v-5.9l-1.7-0.9
	C-51.2,281.8-52.1,283-53,284.1 M-58,289.2c-1.1,0.9-2.3,1.8-3.8,2.7l0.9,1.6h6L-58,289.2 M-57.4,288.6l3.6,5h5.1l0-5.3l-4.9-3.5
	C-54.8,286.2-56,287.5-57.4,288.6 M-58,234.8l3.1-4.3h-5.9l-0.9,1.6C-60.4,233-59.1,233.9-58,234.8 M-53,239.9
	c0.9,1.1,1.8,2.3,2.7,3.8l1.6-0.9v-5.9L-53,239.9 M-53.5,239.2l5-3.6v-5.1h-5.3l-3.5,4.9C-56,236.5-54.7,237.8-53.5,239.2
	 M-56.1,296.8c0-0.2,0-0.2,0.3-0.2c0.4,0,0.6,0.3,0.6,0.7c0,0.2-0.1,0.4-0.2,0.5c-0.1,0.1-0.3,0.1-0.4,0.1c-0.3,0-0.3,0-0.3-0.1
	V296.8z M-56.7,298.7c0,0.6,0,0.6-0.3,0.6l-0.1,0c0,0,0,0.1,0,0.2c0.3,0,0.5,0,0.7,0c0.3,0,0.4,0,0.7,0c0,0,0-0.1,0-0.2l-0.1,0
	c-0.3,0-0.3-0.1-0.3-0.6v-0.5c0-0.1,0-0.1,0.1-0.1c0.1,0,0.3,0,0.3,0.1c0.1,0.2,0.3,0.5,0.4,0.6c0.3,0.5,0.5,0.7,1,0.7
	c0.2,0,0.2,0,0.3,0c0,0,0-0.1,0-0.1c0,0-0.2,0-0.2-0.1c-0.3-0.2-0.5-0.6-0.9-1.3c0-0.1,0-0.1,0-0.1c0.2-0.1,0.6-0.4,0.6-0.8
	c0-0.7-0.7-0.9-1.4-0.9c-0.5,0-0.8,0-1.2,0.1c0,0,0,0.1,0,0.2l0.1,0c0.3,0,0.3,0.1,0.3,0.6V298.7z M-55.7,300.9c1.8,0,3-1.3,3-3
	c0-1.7-1.3-3-3-3c-1.8,0-3,1.3-3,3C-58.7,299.6-57.4,300.9-55.7,300.9 M-55.7,295.3c1.4,0,2.5,1.2,2.5,2.6c0,1.5-1.1,2.6-2.5,2.6
	c-1.4,0-2.5-1.1-2.5-2.6C-58.1,296.5-57.1,295.3-55.7,295.3"/>
</svg>
