<svg version="1.2" xmlns="http://www.w3.org/2000/svg" viewBox="0 0 1497 1157" width="1497" height="1157">
	<title>20221102_lp_logotype_bleu_vertical_rvb-63652c442d623-ai</title>
	<style>
		.s0 { fill: #ffcb05 } 
		.s1 { fill: #003da5 } 
	</style>
	<g id="LA POSTE bleu vertic fd jaune rvb">
		<g id="&lt;Group&gt;">
			<path id="&lt;Path&gt;" class="s0" d="m1496.7 1156.8h-1496.7v-1156.5h1496.7z"/>
			<g id="&lt;Group&gt;">
				<g id="&lt;Group&gt;">
					<g id="&lt;Group&gt;">
						<path id="&lt;Path&gt;" class="s1" d="m476.5 248.6h543.2c30.2 0 50.2 34.5 33.6 63.3l-27.6 47.9h-333.7l-217.8-99c-6.8-3.1-5-12.2 2.3-12.2z"/>
						<path id="&lt;Path&gt;" class="s1" d="m692.1 402.3h543.5c6.3 0 12.3 4.9 12.3 12.3 0 6.5-4.4 10.7-8.9 11.9l-983.4 266.3c-6.4 1.8-11-6.5-5.6-10.8z"/>
						<g id="&lt;Group&gt;">
							<path id="&lt;Path&gt;" class="s1" d="m910.7 559.5l-42.8 74.3c-18.5 32.1-59.1 52-93.7 52.7l-356.8 6.6z"/>
						</g>
					</g>
					<g id="&lt;Group&gt;">
						<g id="&lt;Group&gt;">
							<g id="&lt;Group&gt;">
								<path id="path6 00000034068371187463065150000000408205262632485029 " fill-rule="evenodd" class="s1" d="m520.3 912.9h-14.3c-9.7 0-13.1-0.5-16.8-7.8l-7.6-15h-77.1l-11.5 22.8h-26.8l64.3-124.1h25.5zm-50-45.1l-27.3-54.1-27.3 54.1z"/>
								<path id="path8 00000004520143955491896060000013227297966408741815 " fill-rule="evenodd" class="s1" d="m594.8 876.2v36.7h-25v-123c13.1-0.3 30.8-0.8 45.4-0.8 28.5 0 47.4 4 58.7 15.3 6.9 7.2 10.5 16.9 10 26.8 0 35.5-27.7 45.2-67.3 45.2-5.4 0-15.5-0.2-21.8-0.2zm0-22.8c6.2 0.1 14.1 0.2 19.6 0.2 16 0 30.6-0.5 38.4-8.3 3.6-3.6 5.5-8.6 5.2-13.7 0.1-4.2-1.4-8.3-4.2-11.5-7.8-7.8-19.2-8.3-39.4-8.3-5.5 0-13.4 0.1-19.6 0.3z"/>
								<path id="path10 00000065790594047962160590000007701534720150946964 " fill-rule="evenodd" class="s1" d="m845.9 851.4c0 35.2-27.8 63.9-74.4 63.9-46.6 0-74.3-28.7-74.3-63.9 0-35.2 27.7-63.9 74.3-63.9 46.6 0 74.4 28.7 74.4 63.9zm-74.4-41.5c-28.2 0-48.3 16.3-48.3 41.5 0 25.2 20.1 41.6 48.3 41.6 28.3 0 48.4-16.4 48.4-41.6 0-25.2-20.1-41.5-48.4-41.5z"/>
								<path id="path12 00000104670540483031483880000011727881976820259252 " class="s1" d="m960 820.9c-12.1-7.9-26.3-12.2-40.8-12.4-15 0-29 4.4-29 14.4 0 23.7 84.4 10.1 84.4 53.8 0 24.2-25.9 38.6-56.9 38.6-19.8 0-44.7-7-60.1-17.5l12.7-19c14.6 10 31.9 15.4 49.6 15.5 13.2 0 28.7-4.4 28.7-14.8 0-25.6-84.8-9.6-84.8-52.7 0-22.9 24.6-39.3 55.9-39.3 16.6 0 38.5 5.3 52 13.8z"/>
								<path id="polygon14 00000092439648608340538940000003915751334627379846 " class="s1" d="m1102.4 812.7h-47.4v100.2h-24.9v-100.2h-46.6v-22.9h118.9z"/>
								<path id="&lt;Path&gt;" class="s1" d="m1224.9 789.8v22.9h-82v26h75.2v22.8h-75.2v28.6h84.3v22.8h-100.3c-5.7 0-8.9-3.7-8.9-8.9v-114.2z"/>
								<path id="&lt;Path&gt;" class="s1" d="m293.3 890.1h70.2l-11.8 22.8h-74.4c-5.7 0-8.9-3.7-8.9-8.9v-114.2h24.9z"/>
							</g>
						</g>
					</g>
				</g>
			</g>
		</g>
	</g>
</svg>