<?xml version="1.0" encoding="UTF-8" standalone="no"?>
<!-- Created with Inkscape (http://www.inkscape.org/) -->

<svg
   viewBox="0 0 208.56124 131.67042"
   version="1.1"
   id="svg1"
   inkscape:version="1.4 (86a8ad7, 2024-10-11)"
   sodipodi:docname="Gaumont 2026.svg"
   xmlns:inkscape="http://www.inkscape.org/namespaces/inkscape"
   xmlns:sodipodi="http://sodipodi.sourceforge.net/DTD/sodipodi-0.dtd"
   xmlns="http://www.w3.org/2000/svg"
   xmlns:svg="http://www.w3.org/2000/svg">
  <sodipodi:namedview
     id="namedview1"
     pagecolor="#404040"
     bordercolor="#000000"
     borderopacity="0.25"
     inkscape:showpageshadow="false"
     inkscape:pageopacity="0.0"
     inkscape:pagecheckerboard="0"
     inkscape:deskcolor="#d1d1d1"
     inkscape:document-units="mm"
     borderlayer="false"
     inkscape:zoom="3.895476"
     inkscape:cx="121.03784"
     inkscape:cy="100.75791"
     inkscape:window-width="1920"
     inkscape:window-height="991"
     inkscape:window-x="-9"
     inkscape:window-y="-9"
     inkscape:window-maximized="1"
     inkscape:current-layer="layer1" />
  <defs
     id="defs1">
    <linearGradient
       x1="131.57455"
       y1="6.3493099"
       x2="123.40765"
       y2="15.11119"
       id="linearGradient-1"
       gradientTransform="scale(0.98232125,1.0179969)"
       gradientUnits="userSpaceOnUse">
      <stop
         stop-color="#FF1E23"
         offset="12%"
         id="stop1" />
      <stop
         stop-color="#FF1E23"
         stop-opacity="0.03"
         offset="100%"
         id="stop2" />
    </linearGradient>
    <linearGradient
       x1="149.27435"
       y1="3.9296203"
       x2="147.14224"
       y2="8.8359032"
       id="linearGradient-2"
       gradientTransform="scale(0.83410051,1.1988963)"
       gradientUnits="userSpaceOnUse">
      <stop
         stop-color="#FF1E23"
         offset="12%"
         id="stop3" />
      <stop
         stop-color="#FF1E23"
         stop-opacity="0.03"
         offset="100%"
         id="stop4" />
    </linearGradient>
    <linearGradient
       x1="170.43541"
       y1="3.9411108"
       x2="169.17622"
       y2="9.9602175"
       id="linearGradient-3"
       gradientTransform="scale(0.70242048,1.4236487)"
       gradientUnits="userSpaceOnUse">
      <stop
         stop-color="#FF1E23"
         offset="12%"
         id="stop5" />
      <stop
         stop-color="#FF1E23"
         stop-opacity="0.03"
         offset="100%"
         id="stop6" />
    </linearGradient>
    <linearGradient
       x1="205.57245"
       y1="0.3285594"
       x2="204.84027"
       y2="8.71735"
       id="linearGradient-4"
       gradientTransform="scale(0.57080002,1.7519271)"
       gradientUnits="userSpaceOnUse">
      <stop
         stop-color="#FF1E23"
         offset="12%"
         id="stop7" />
      <stop
         stop-color="#FF1E23"
         stop-opacity="0.03"
         offset="100%"
         id="stop8" />
    </linearGradient>
    <linearGradient
       x1="245.25771"
       y1="0.00142288"
       x2="245.43713"
       y2="6.7716241"
       id="linearGradient-5"
       gradientTransform="scale(0.44871689,2.2285767)"
       gradientUnits="userSpaceOnUse">
      <stop
         stop-color="#FF1E23"
         offset="12%"
         id="stop9" />
      <stop
         stop-color="#FF1E23"
         stop-opacity="0.03"
         offset="100%"
         id="stop10" />
    </linearGradient>
    <linearGradient
       x1="174.26787"
       y1="1.5953372"
       x2="174.85429"
       y2="6.9833508"
       id="linearGradient-6"
       gradientTransform="scale(0.61576096,1.6240068)"
       gradientUnits="userSpaceOnUse">
      <stop
         stop-color="#FF1E23"
         offset="12%"
         id="stop11" />
      <stop
         stop-color="#FF1E23"
         stop-opacity="0.03"
         offset="100%"
         id="stop12" />
    </linearGradient>
    <linearGradient
       x1="122.91611"
       y1="3.1114204"
       x2="127.57469"
       y2="13.620515"
       id="linearGradient-7"
       gradientTransform="scale(0.82642252,1.2100348)"
       gradientUnits="userSpaceOnUse">
      <stop
         stop-color="#FF1E23"
         offset="12%"
         id="stop13" />
      <stop
         stop-color="#FF1E23"
         stop-opacity="0.03"
         offset="100%"
         id="stop14" />
    </linearGradient>
    <linearGradient
       x1="103.94223"
       y1="7.962266"
       x2="107.6465"
       y2="12.576401"
       id="linearGradient-8"
       gradientTransform="scale(0.95286431,1.0494674)"
       gradientUnits="userSpaceOnUse">
      <stop
         stop-color="#FF1E23"
         offset="12%"
         id="stop15" />
      <stop
         stop-color="#FF1E23"
         stop-opacity="0.03"
         offset="100%"
         id="stop16" />
    </linearGradient>
    <linearGradient
       x1="83.140701"
       y1="12.072118"
       x2="91.761925"
       y2="17.328201"
       id="linearGradient-9"
       gradientTransform="scale(1.1220081,0.89125918)"
       gradientUnits="userSpaceOnUse">
      <stop
         stop-color="#FF1E23"
         offset="12%"
         id="stop17" />
      <stop
         stop-color="#FF1E23"
         stop-opacity="0.03"
         offset="100%"
         id="stop18" />
    </linearGradient>
    <linearGradient
       x1="69.111137"
       y1="20.91721"
       x2="78.270599"
       y2="23.563602"
       id="linearGradient-10"
       gradientTransform="scale(1.3366752,0.74812488)"
       gradientUnits="userSpaceOnUse">
      <stop
         stop-color="#FF1E23"
         offset="12%"
         id="stop19" />
      <stop
         stop-color="#FF1E23"
         stop-opacity="0.03"
         offset="100%"
         id="stop20" />
    </linearGradient>
    <linearGradient
       x1="46.856663"
       y1="51.654354"
       x2="50.7729"
       y2="51.517803"
       id="linearGradient-11"
       gradientTransform="scale(1.9449733,0.51414587)"
       gradientUnits="userSpaceOnUse">
      <stop
         stop-color="#FF1E23"
         offset="12%"
         id="stop21" />
      <stop
         stop-color="#FF1E23"
         stop-opacity="0.03"
         offset="100%"
         id="stop22" />
    </linearGradient>
    <linearGradient
       x1="39.731861"
       y1="48.8111"
       x2="45.747002"
       y2="48.959328"
       id="linearGradient-12"
       gradientTransform="scale(2.2315621,0.44811658)"
       gradientUnits="userSpaceOnUse">
      <stop
         stop-color="#FF1E23"
         offset="12%"
         id="stop23" />
      <stop
         stop-color="#FF1E23"
         stop-opacity="0.03"
         offset="100%"
         id="stop24" />
    </linearGradient>
    <linearGradient
       x1="52.549664"
       y1="49.764805"
       x2="61.141392"
       y2="48.885403"
       id="linearGradient-13"
       gradientTransform="scale(1.7010277,0.5878799)"
       gradientUnits="userSpaceOnUse">
      <stop
         stop-color="#FF1E23"
         offset="12%"
         id="stop25" />
      <stop
         stop-color="#FF1E23"
         stop-opacity="0.03"
         offset="100%"
         id="stop26" />
    </linearGradient>
    <linearGradient
       x1="80.818184"
       y1="42.39035"
       x2="87.991516"
       y2="38.443089"
       id="linearGradient-14"
       gradientTransform="scale(1.1489757,0.87034045)"
       gradientUnits="userSpaceOnUse">
      <stop
         stop-color="#FF1E23"
         offset="12%"
         id="stop27" />
      <stop
         stop-color="#FF1E23"
         stop-opacity="0.03"
         offset="100%"
         id="stop28" />
    </linearGradient>
    <linearGradient
       x1="157.62241"
       y1="31.184568"
       x2="159.19737"
       y2="22.249065"
       id="linearGradient-15"
       gradientTransform="scale(0.66887991,1.4950367)"
       gradientUnits="userSpaceOnUse">
      <stop
         stop-color="#FF1E23"
         offset="12%"
         id="stop29" />
      <stop
         stop-color="#FF1E23"
         stop-opacity="0.03"
         offset="100%"
         id="stop30" />
    </linearGradient>
    <linearGradient
       x1="248.26813"
       y1="22.343868"
       x2="248.09238"
       y2="16.585548"
       id="linearGradient-16"
       gradientTransform="scale(0.46566138,2.1474832)"
       gradientUnits="userSpaceOnUse">
      <stop
         stop-color="#FF1E23"
         offset="12%"
         id="stop31" />
      <stop
         stop-color="#FF1E23"
         stop-opacity="0.03"
         offset="100%"
         id="stop32" />
    </linearGradient>
    <linearGradient
       x1="153.01724"
       y1="34.930187"
       x2="151.38599"
       y2="30.389734"
       id="linearGradient-17"
       gradientTransform="scale(0.80466884,1.2427473)"
       gradientUnits="userSpaceOnUse">
      <stop
         stop-color="#FF1E23"
         offset="12%"
         id="stop33" />
      <stop
         stop-color="#FF1E23"
         stop-opacity="0.03"
         offset="100%"
         id="stop34" />
    </linearGradient>
    <linearGradient
       x1="133.64052"
       y1="40.267143"
       x2="124.55522"
       y2="29.493427"
       id="linearGradient-18"
       gradientTransform="scale(0.9596379,1.0420597)"
       gradientUnits="userSpaceOnUse">
      <stop
         stop-color="#FF1E23"
         offset="12%"
         id="stop35" />
      <stop
         stop-color="#FF1E23"
         stop-opacity="0.03"
         offset="100%"
         id="stop36" />
    </linearGradient>
    <linearGradient
       x1="112.88374"
       y1="39.841496"
       x2="104.9233"
       y2="35.403"
       id="linearGradient-19"
       gradientTransform="scale(1.1417664,0.87583588)"
       gradientUnits="userSpaceOnUse">
      <stop
         stop-color="#FF1E23"
         offset="12%"
         id="stop37" />
      <stop
         stop-color="#FF1E23"
         stop-opacity="0.03"
         offset="100%"
         id="stop38" />
    </linearGradient>
    <linearGradient
       x1="98.135567"
       y1="45.74844"
       x2="91.556381"
       y2="44.127045"
       id="linearGradient-20"
       gradientTransform="scale(1.3752583,0.72713613)"
       gradientUnits="userSpaceOnUse">
      <stop
         stop-color="#FF1E23"
         offset="12%"
         id="stop39" />
      <stop
         stop-color="#FF1E23"
         stop-opacity="0.03"
         offset="100%"
         id="stop40" />
    </linearGradient>
    <linearGradient
       x1="80.076073"
       y1="48.957409"
       x2="74.766563"
       y2="48.446735"
       id="linearGradient-21"
       gradientTransform="scale(1.6711217,0.59840045)"
       gradientUnits="userSpaceOnUse">
      <stop
         stop-color="#FF1E23"
         offset="12%"
         id="stop41" />
      <stop
         stop-color="#FF1E23"
         stop-opacity="0.03"
         offset="100%"
         id="stop42" />
    </linearGradient>
    <linearGradient
       x1="49.442787"
       y1="65.91803"
       x2="43.897644"
       y2="65.930634"
       id="linearGradient-22"
       gradientTransform="scale(2.7725403,0.36068006)"
       gradientUnits="userSpaceOnUse">
      <stop
         stop-color="#FF1E23"
         offset="12%"
         id="stop43" />
      <stop
         stop-color="#FF1E23"
         stop-opacity="0.03"
         offset="100%"
         id="stop44" />
    </linearGradient>
    <linearGradient
       x1="70.410614"
       y1="39.001198"
       x2="64.105461"
       y2="39.342583"
       id="linearGradient-23"
       gradientTransform="scale(1.8954607,0.52757623)"
       gradientUnits="userSpaceOnUse">
      <stop
         stop-color="#FF1E23"
         offset="12%"
         id="stop45" />
      <stop
         stop-color="#FF1E23"
         stop-opacity="0.03"
         offset="100%"
         id="stop46" />
    </linearGradient>
    <linearGradient
       x1="99.837761"
       y1="19.535536"
       x2="94.437035"
       y2="20.921246"
       id="linearGradient-24"
       gradientTransform="scale(1.3487098,0.74144936)"
       gradientUnits="userSpaceOnUse">
      <stop
         stop-color="#FF1E23"
         offset="12%"
         id="stop47" />
      <stop
         stop-color="#FF1E23"
         stop-opacity="0.03"
         offset="100%"
         id="stop48" />
    </linearGradient>
    <linearGradient
       x1="111.92879"
       y1="15.256879"
       x2="103.65124"
       y2="19.595154"
       id="linearGradient-25"
       gradientTransform="scale(1.1558915,0.86513313)"
       gradientUnits="userSpaceOnUse">
      <stop
         stop-color="#FF1E23"
         offset="12%"
         id="stop49" />
      <stop
         stop-color="#FF1E23"
         stop-opacity="0.03"
         offset="100%"
         id="stop50" />
    </linearGradient>
    <linearGradient
       x1="139.65005"
       y1="9.1447878"
       x2="136.93118"
       y2="14.30586"
       id="linearGradient-26"
       gradientTransform="scale(0.86708381,1.1532911)"
       gradientUnits="userSpaceOnUse">
      <stop
         stop-color="#FF1E23"
         offset="12%"
         id="stop51" />
      <stop
         stop-color="#FF1E23"
         stop-opacity="0.03"
         offset="100%"
         id="stop52" />
    </linearGradient>
    <linearGradient
       x1="92.263855"
       y1="25.470531"
       x2="87.202881"
       y2="26.588427"
       id="linearGradient-27"
       gradientTransform="scale(1.3873147,0.720817)"
       gradientUnits="userSpaceOnUse">
      <stop
         stop-color="#FF1E23"
         offset="12%"
         id="stop53" />
      <stop
         stop-color="#FF1E23"
         stop-opacity="0.03"
         offset="100%"
         id="stop54" />
    </linearGradient>
    <linearGradient
       x1="271.50391"
       y1="1.5115204"
       x2="271.45276"
       y2="6.2893066"
       id="linearGradient-28"
       gradientTransform="scale(0.41902717,2.3864801)"
       gradientUnits="userSpaceOnUse">
      <stop
         stop-color="#FF1E23"
         offset="12%"
         id="stop55" />
      <stop
         stop-color="#FF1E23"
         stop-opacity="0.03"
         offset="100%"
         id="stop56" />
    </linearGradient>
    <linearGradient
       x1="145.13058"
       y1="6.809731"
       x2="146.29335"
       y2="11.61495"
       id="linearGradient-29"
       gradientTransform="scale(0.73713029,1.3566123)"
       gradientUnits="userSpaceOnUse">
      <stop
         stop-color="#FF1E23"
         offset="12%"
         id="stop57" />
      <stop
         stop-color="#FF1E23"
         stop-opacity="0.03"
         offset="100%"
         id="stop58" />
    </linearGradient>
    <linearGradient
       x1="98.337845"
       y1="14.101508"
       x2="102.88182"
       y2="18.010195"
       id="linearGradient-30"
       gradientTransform="scale(1.0322475,0.96875989)"
       gradientUnits="userSpaceOnUse">
      <stop
         stop-color="#FF1E23"
         offset="12%"
         id="stop59" />
      <stop
         stop-color="#FF1E23"
         stop-opacity="0.03"
         offset="100%"
         id="stop60" />
    </linearGradient>
    <linearGradient
       x1="54.281509"
       y1="33.604511"
       x2="60.738235"
       y2="34.174114"
       id="linearGradient-31"
       gradientTransform="scale(1.7116453,0.58423318)"
       gradientUnits="userSpaceOnUse">
      <stop
         stop-color="#FF1E23"
         offset="12%"
         id="stop61" />
      <stop
         stop-color="#FF1E23"
         stop-opacity="0.03"
         offset="100%"
         id="stop62" />
    </linearGradient>
    <linearGradient
       x1="52.40514"
       y1="44.89687"
       x2="56.135258"
       y2="44.878304"
       id="linearGradient-32"
       gradientTransform="scale(1.8462737,0.54163151)"
       gradientUnits="userSpaceOnUse">
      <stop
         stop-color="#FF1E23"
         offset="12%"
         id="stop63" />
      <stop
         stop-color="#FF1E23"
         stop-opacity="0.03"
         offset="100%"
         id="stop64" />
    </linearGradient>
    <linearGradient
       x1="69.73336"
       y1="42.53352"
       x2="77.383064"
       y2="40.491707"
       id="linearGradient-33"
       gradientTransform="scale(1.3515531,0.73988952)"
       gradientUnits="userSpaceOnUse">
      <stop
         stop-color="#FF1E23"
         offset="12%"
         id="stop65" />
      <stop
         stop-color="#FF1E23"
         stop-opacity="0.03"
         offset="100%"
         id="stop66" />
    </linearGradient>
    <linearGradient
       x1="122.04868"
       y1="35.358604"
       x2="126.1838"
       y2="26.484091"
       id="linearGradient-34"
       gradientTransform="scale(0.83892157,1.1920065)"
       gradientUnits="userSpaceOnUse">
      <stop
         stop-color="#FF1E23"
         offset="12%"
         id="stop67" />
      <stop
         stop-color="#FF1E23"
         stop-opacity="0.03"
         offset="100%"
         id="stop68" />
    </linearGradient>
    <linearGradient
       x1="96.089554"
       y1="35.695793"
       x2="100.9992"
       y2="31.664745"
       id="linearGradient-35"
       gradientTransform="scale(1.0469775,0.95513036)"
       gradientUnits="userSpaceOnUse">
      <stop
         stop-color="#FF1E23"
         offset="12%"
         id="stop69" />
      <stop
         stop-color="#FF1E23"
         stop-opacity="0.03"
         offset="100%"
         id="stop70" />
    </linearGradient>
    <linearGradient
       x1="201.26929"
       y1="25.058149"
       x2="201.42377"
       y2="21.338314"
       id="linearGradient-36"
       gradientTransform="scale(0.54429334,1.8372446)"
       gradientUnits="userSpaceOnUse">
      <stop
         stop-color="#FF1E23"
         offset="12%"
         id="stop71" />
      <stop
         stop-color="#FF1E23"
         stop-opacity="0.03"
         offset="100%"
         id="stop72" />
    </linearGradient>
    <linearGradient
       x1="184.10135"
       y1="23.640108"
       x2="184.41078"
       y2="19.517485"
       id="linearGradient-37"
       gradientTransform="scale(0.59459073,1.6818291)"
       gradientUnits="userSpaceOnUse">
      <stop
         stop-color="#FF1E23"
         offset="12%"
         id="stop73" />
      <stop
         stop-color="#FF1E23"
         stop-opacity="0.03"
         offset="100%"
         id="stop74" />
    </linearGradient>
    <linearGradient
       x1="251.62257"
       y1="19.288532"
       x2="251.63045"
       y2="14.802853"
       id="linearGradient-38"
       gradientTransform="scale(0.44777448,2.2332671)"
       gradientUnits="userSpaceOnUse">
      <stop
         stop-color="#FF1E23"
         offset="12%"
         id="stop75" />
      <stop
         stop-color="#FF1E23"
         stop-opacity="0.03"
         offset="100%"
         id="stop76" />
    </linearGradient>
    <linearGradient
       x1="181.68498"
       y1="28.201763"
       x2="180.6312"
       y2="21.16704"
       id="linearGradient-39"
       gradientTransform="scale(0.65063264,1.5369656)"
       gradientUnits="userSpaceOnUse">
      <stop
         stop-color="#FF1E23"
         offset="12%"
         id="stop77" />
      <stop
         stop-color="#FF1E23"
         stop-opacity="0.03"
         offset="100%"
         id="stop78" />
    </linearGradient>
    <linearGradient
       x1="145.31917"
       y1="31.221115"
       x2="143.32198"
       y2="26.381041"
       id="linearGradient-40"
       gradientTransform="scale(0.82860474,1.206848)"
       gradientUnits="userSpaceOnUse">
      <stop
         stop-color="#FF1E23"
         offset="12%"
         id="stop79" />
      <stop
         stop-color="#FF1E23"
         stop-opacity="0.03"
         offset="100%"
         id="stop80" />
    </linearGradient>
    <linearGradient
       x1="68.634537"
       y1="49.834442"
       x2="64.617844"
       y2="49.654743"
       id="linearGradient-41"
       gradientTransform="scale(1.8817867,0.53140985)"
       gradientUnits="userSpaceOnUse">
      <stop
         stop-color="#FF1E23"
         offset="12%"
         id="stop81" />
      <stop
         stop-color="#FF1E23"
         stop-opacity="0.03"
         offset="100%"
         id="stop82" />
    </linearGradient>
    <linearGradient
       x1="100.03646"
       y1="38.311256"
       x2="103.98997"
       y2="33.886467"
       id="linearGradient-42"
       gradientTransform="scale(0.97869381,1.02177)"
       gradientUnits="userSpaceOnUse">
      <stop
         stop-color="#FF1E23"
         offset="12%"
         id="stop83" />
      <stop
         stop-color="#FF1E23"
         stop-opacity="0.03"
         offset="100%"
         id="stop84" />
    </linearGradient>
    <linearGradient
       x1="98.192284"
       y1="38.855824"
       x2="93.916939"
       y2="37.543362"
       id="linearGradient-43"
       gradientTransform="scale(1.287017,0.77699053)"
       gradientUnits="userSpaceOnUse">
      <stop
         stop-color="#FF1E23"
         offset="12%"
         id="stop85" />
      <stop
         stop-color="#FF1E23"
         stop-opacity="0.03"
         offset="100%"
         id="stop86" />
    </linearGradient>
  </defs>
  <g
     inkscape:label="Layer 1"
     inkscape:groupmode="layer"
     id="layer1"
     transform="translate(-236.38128,-245.34159)">
    <g
       id="g134"
       transform="matrix(2.0318897,0,0,2.0318897,111.10584,245.34159)">
      <path
         d="m 129.50604,7.929728 -8.37049,7.476782 c -0.0584,0.05257 -0.14603,0.04673 -0.1986,-0.01168 -0.0467,-0.05257 -0.0467,-0.128507 0,-0.181078 l 7.13214,-8.6683939 c 0.35048,-0.4264102 0.98133,-0.4906638 1.40774,-0.1343484 0.47314,0.3796803 0.48482,1.1215172 0.0292,1.5187213 z"
         id="path90"
         fill="url(#linearGradient-1)"
         style="fill:url(#linearGradient-1);fill-rule:evenodd;stroke:none;stroke-width:1" />
      <path
         d="m 125.58073,6.2299283 -3.72087,4.3400387 c -0.0993,0.122666 -0.30374,0 -0.23365,-0.146031 0,0 2.2664,-5.2512713 2.2664,-5.2512713 0.22197,-0.5140288 0.81777,-0.7476782 1.32596,-0.5257113 0.61917,0.2570144 0.80609,1.0864699 0.368,1.5829749 v 0 z"
         id="path91"
         fill="url(#linearGradient-2)"
         style="fill:url(#linearGradient-2);fill-rule:evenodd;stroke:none;stroke-width:1" />
      <path
         d="m 121.36336,7.0184952 -3.89611,7.1263078 c -0.0759,0.14019 -0.30374,0.05257 -0.25701,-0.105142 0,0 2.30729,-7.7863677 2.30729,-7.7863677 0.15771,-0.5315525 0.71847,-0.8352967 1.25002,-0.6775834 0.60749,0.1693959 0.90539,0.8937091 0.59581,1.4427853 z"
         id="path92"
         fill="url(#linearGradient-3)"
         style="fill:url(#linearGradient-3);fill-rule:evenodd;stroke:none;stroke-width:1" />
      <path
         d="m 119.51168,1.860684 -4.47438,13.323859 c -0.0526,0.157713 -0.30375,0.105142 -0.2687,-0.0701 0,0 2.81548,-13.7677928 2.81548,-13.7677928 0.11098,-0.5432349 0.63669,-0.88786781 1.17993,-0.77688433 0.58412,0.11682471 0.94044,0.73599573 0.74767,1.29675433 v 0 z"
         id="path93"
         fill="url(#linearGradient-4)"
         style="fill:url(#linearGradient-4);fill-rule:evenodd;stroke:none;stroke-width:1" />
      <path
         d="m 110.55707,0.92024502 1.03974,14.01896598 c 0,0.07594 -0.0526,0.146031 -0.12851,0.151872 -0.0701,0 -0.13435,-0.04089 -0.14603,-0.110983 L 108.57689,1.1947831 c -0.10514,-0.54323493 0.24533,-1.06894615 0.78857,-1.1740884 0.58412,-0.12266595 1.15072,0.31542674 1.19161,0.90539155 v 0 z"
         id="path94"
         fill="url(#linearGradient-5)"
         style="fill:url(#linearGradient-5);fill-rule:evenodd;stroke:none;stroke-width:1" />
      <path
         d="m 107.7708,3.3852465 1.33764,7.7980495 c 0.0292,0.157714 -0.20444,0.23365 -0.26869,0.07594 0,0 -2.99072,-7.3307505 -2.99072,-7.3307505 -0.21028,-0.5140288 0.035,-1.0981524 0.54908,-1.3084369 0.58412,-0.2453319 1.26755,0.1343485 1.36685,0.7593607 v 0 z"
         id="path95"
         fill="url(#linearGradient-6)"
         style="fill:url(#linearGradient-6);fill-rule:evenodd;stroke:none;stroke-width:1" />
      <path
         d="m 100.88983,4.1095598 6.91018,12.1672942 c 0.0818,0.14019 -0.12267,0.292062 -0.23365,0.151872 0,0 -8.347129,-11.2268552 -8.347129,-11.2268552 -0.327109,-0.4439339 -0.23949,-1.0689461 0.204443,-1.4018965 0.473141,-0.3563154 1.174086,-0.2102845 1.466156,0.3095855 z"
         id="path96"
         fill="url(#linearGradient-7)"
         style="fill:url(#linearGradient-7);fill-rule:evenodd;stroke:none;stroke-width:1" />
      <path
         d="m 100.22392,8.5839464 2.76875,4.4393396 c 0.0818,0.128507 -0.0876,0.28622 -0.21028,0.181078 0,0 -4.059664,-3.3061396 -4.059664,-3.3061396 -0.432251,-0.3504741 -0.496505,-0.9930101 -0.146031,-1.4252615 0.420569,-0.5373937 1.290913,-0.4789813 1.641385,0.1051422 v 0 z"
         id="path97"
         fill="url(#linearGradient-8)"
         style="fill:url(#linearGradient-8);fill-rule:evenodd;stroke:none;stroke-width:1" />
      <path
         d="m 94.744844,9.3141009 c 0,0 1.512881,1.3610081 3.241886,2.9206181 2.28976,2.061956 4.95337,4.456863 4.95337,4.456863 0.12266,0.110983 -0.0234,0.315426 -0.1694,0.221967 0,0 -9.240833,-6.010632 -9.240833,-6.010632 -0.461457,-0.303744 -0.595806,-0.9229153 -0.292061,-1.3843729 0.327109,-0.5140287 1.063105,-0.6074885 1.507038,-0.198602 v 0 z"
         id="path98"
         fill="url(#linearGradient-9)"
         style="fill:url(#linearGradient-9);fill-rule:evenodd;stroke:none;stroke-width:1" />
      <path
         d="m 93.786882,13.239411 10.788758,6.530502 c 0.0643,0.04089 0.0876,0.128507 0.0467,0.192761 -0.035,0.05841 -0.11098,0.08178 -0.17523,0.05841 L 92.869808,15.020988 c -0.508188,-0.221967 -0.741837,-0.80609 -0.51987,-1.314278 0.221967,-0.508187 0.80609,-0.741837 1.314278,-0.51987 0.04089,0.01752 0.08178,0.04089 0.122666,0.06425 0,0 -0.03505,-0.02337 0,0 z"
         id="path99"
         fill="url(#linearGradient-10)"
         style="fill:url(#linearGradient-10);fill-rule:evenodd;stroke:none;stroke-width:1" />
      <path
         d="m 92.139653,25.541054 6.47209,0.02337 c 0.07594,0 0.140189,0.06425 0.140189,0.140189 0,0.06425 -0.04673,0.116825 -0.105142,0.134349 l -6.250122,1.682276 c -0.537394,0.146031 -1.092311,-0.175237 -1.232501,-0.712631 -0.181078,-0.630853 0.327109,-1.279231 0.975486,-1.267548 z"
         id="path100"
         fill="url(#linearGradient-11)"
         style="fill:url(#linearGradient-11);fill-rule:evenodd;stroke:none;stroke-width:1" />
      <path
         d="m 89.849889,20.564321 12.120561,2.400748 c 0.0759,0.01752 0.12267,0.08762 0.11099,0.163554 -0.0117,0.07009 -0.0759,0.116825 -0.14603,0.110984 L 89.598716,22.5445 c -0.549076,-0.02921 -0.975487,-0.502346 -0.940439,-1.057264 0.02921,-0.601647 0.601647,-1.045581 1.191612,-0.922915 z"
         id="path101"
         fill="url(#linearGradient-12)"
         style="fill:url(#linearGradient-12);fill-rule:evenodd;stroke:none;stroke-width:1" />
      <path
         d="m 90.130268,29.594871 13.732742,-3.090013 c 0.0759,-0.01752 0.15188,0.02921 0.1694,0.105142 0.0175,0.0701 -0.0234,0.14019 -0.0876,0.163555 l -13.253763,4.743083 c -0.51987,0.18692 -1.092311,-0.08178 -1.279231,-0.607488 -0.204443,-0.560759 0.14019,-1.185771 0.724314,-1.314279 v 0 z"
         id="path102"
         fill="url(#linearGradient-13)"
         style="fill:url(#linearGradient-13);fill-rule:evenodd;stroke:none;stroke-width:1" />
      <path
         d="m 93.16187,36.633561 7.77468,-4.538641 c 0.0643,-0.04089 0.15188,-0.01752 0.19277,0.05257 0.035,0.05841 0.0234,0.134348 -0.0292,0.175237 l -6.769993,5.928854 c -0.414728,0.362157 -1.051423,0.321268 -1.413579,-0.09346 -0.414728,-0.461457 -0.292062,-1.220818 0.251173,-1.524562 v 0 z"
         id="path103"
         fill="url(#linearGradient-14)"
         style="fill:url(#linearGradient-14);fill-rule:evenodd;stroke:none;stroke-width:1" />
      <path
         d="m 102.99851,45.261066 5.64263,-11.921962 c 0.0351,-0.0701 0.11683,-0.0993 0.18692,-0.06425 0.0643,0.02921 0.0935,0.105142 0.0759,0.169396 l -4.04798,12.552816 c -0.16939,0.525711 -0.73599,0.817773 -1.2617,0.642536 -0.57244,-0.181079 -0.85867,-0.841138 -0.59581,-1.378532 v 0 z"
         id="path104"
         fill="url(#linearGradient-15)"
         style="fill:url(#linearGradient-15);fill-rule:evenodd;stroke:none;stroke-width:1" />
      <path
         d="m 114.93215,47.054325 -0.68926,-11.29695 c 0,-0.07594 0.0526,-0.140189 0.12851,-0.146031 0.0701,0 0.1285,0.04089 0.14603,0.110984 l 2.38906,11.063301 c 0.11683,0.543234 -0.2278,1.074787 -0.7652,1.191612 -0.54323,0.116824 -1.07479,-0.227809 -1.19161,-0.765202 -0.0117,-0.04673 -0.0175,-0.105143 -0.0234,-0.151873 0,0 0,0.04673 0,0 z"
         id="path105"
         fill="url(#linearGradient-16)"
         style="fill:url(#linearGradient-16);fill-rule:evenodd;stroke:none;stroke-width:1" />
      <path
         d="m 122.46735,42.866159 -1.76989,-4.912479 c -0.0292,-0.07594 0.0117,-0.151872 0.0876,-0.181078 0.0584,-0.02336 0.12267,0 0.15772,0.04673 l 3.26525,4.077183 c 0.35047,0.438093 0.28038,1.074788 -0.15771,1.425262 -0.52572,0.438092 -1.36685,0.198602 -1.58298,-0.449776 v 0 z"
         id="path106"
         fill="url(#linearGradient-17)"
         style="fill:url(#linearGradient-17);fill-rule:evenodd;stroke:none;stroke-width:1" />
      <path
         d="M 127.54923,41.849784 118.7348,30.903308 c -0.0467,-0.05841 -0.0409,-0.146031 0.0234,-0.198602 0.0526,-0.04673 0.13434,-0.04089 0.18691,0.0058 l 10.08782,9.789911 c 0.3972,0.385521 0.40304,1.016375 0.0234,1.413579 -0.41472,0.432251 -1.12735,0.397204 -1.49535,-0.07009 v 0 z"
         id="path107"
         fill="url(#linearGradient-18)"
         style="fill:url(#linearGradient-18);fill-rule:evenodd;stroke:none;stroke-width:1" />
      <path
         d="m 127.41488,36.353181 -7.5644,-6.61812 c -0.0584,-0.05257 -0.0643,-0.14019 -0.0117,-0.198602 0.0467,-0.05257 0.12267,-0.06425 0.17524,-0.02921 l 8.58078,5.233747 c 0.47314,0.286221 0.61917,0.905392 0.33295,1.378532 -0.31543,0.525711 -1.05727,0.642536 -1.51288,0.233649 z"
         id="path108"
         fill="url(#linearGradient-19)"
         style="fill:url(#linearGradient-19);fill-rule:evenodd;stroke:none;stroke-width:1" />
      <path
         d="m 133.54233,35.033062 -7.5936,-4.44518 c -0.14019,-0.08178 -0.0409,-0.309586 0.11682,-0.251174 0,0 8.31208,2.885571 8.31208,2.885571 0.52571,0.181078 0.80025,0.753519 0.61917,1.279231 -0.1986,0.589964 -0.91707,0.858661 -1.45447,0.537393 v 0 z"
         id="path109"
         fill="url(#linearGradient-20)"
         style="fill:url(#linearGradient-20);fill-rule:evenodd;stroke:none;stroke-width:1" />
      <path
         d="m 132.49091,30.716389 -7.47094,-2.856364 c -0.15187,-0.05841 -0.0935,-0.292062 0.0701,-0.268697 0,0 7.90904,1.191612 7.90904,1.191612 0.54907,0.08178 0.92875,0.595806 0.84114,1.144882 -0.0876,0.625012 -0.76521,1.022216 -1.34933,0.788567 z"
         id="path110"
         fill="url(#linearGradient-21)"
         style="fill:url(#linearGradient-21);fill-rule:evenodd;stroke:none;stroke-width:1" />
      <path
         d="m 136.04238,24.775852 -14.20004,-0.607488 c -0.0759,0 -0.13435,-0.0701 -0.13435,-0.146031 0,-0.07009 0.0584,-0.128508 0.12851,-0.134349 l 14.17083,-1.109835 c 0.54908,-0.04089 1.0339,0.367998 1.07479,0.917074 0.0526,0.595806 -0.44393,1.103994 -1.03974,1.074788 v 0 z"
         id="path111"
         fill="url(#linearGradient-22)"
         style="fill:url(#linearGradient-22);fill-rule:evenodd;stroke:none;stroke-width:1" />
      <path
         d="m 132.59605,20.979049 -10.92311,1.32596 c -0.16355,0.01752 -0.22196,-0.221967 -0.0526,-0.274538 0,0 10.57848,-3.014078 10.57848,-3.014078 0.53155,-0.151872 1.08647,0.157714 1.23834,0.689266 0.1694,0.584124 -0.23949,1.197454 -0.84114,1.267548 v 0 z"
         id="path112"
         fill="url(#linearGradient-23)"
         style="fill:url(#linearGradient-23);fill-rule:evenodd;stroke:none;stroke-width:1" />
      <path
         d="m 134.04468,14.857434 -6.50714,2.091162 c -0.0759,0.02337 -0.15187,-0.01752 -0.17523,-0.09346 -0.0175,-0.06425 0.006,-0.128507 0.0584,-0.163554 l 5.78282,-3.644931 c 0.4673,-0.297903 1.09231,-0.157714 1.39021,0.315426 0.35632,0.543235 0.0759,1.302596 -0.54323,1.495357 v 0 z"
         id="path113"
         fill="url(#linearGradient-24)"
         style="fill:url(#linearGradient-24);fill-rule:evenodd;stroke:none;stroke-width:1" />
      <path
         d="m 129.06795,13.221888 -9.01303,5.39146 c -0.0643,0.04089 -0.15187,0.01752 -0.19276,-0.04673 -0.035,-0.05841 -0.0234,-0.134348 0.0292,-0.175237 l 8.00834,-6.787516 c 0.42057,-0.356315 1.05142,-0.303744 1.41358,0.116825 0.40304,0.461458 0.27454,1.197453 -0.25118,1.507039 v 0 z"
         id="path114"
         fill="url(#linearGradient-25)"
         style="fill:url(#linearGradient-25);fill-rule:evenodd;stroke:none;stroke-width:1" />
      <path
         d="m 122.07015,12.059482 -4.12976,4.433498 c -0.10514,0.116824 -0.30374,-0.01752 -0.22781,-0.157714 0,0 2.71618,-5.414825 2.71618,-5.414825 0.25117,-0.496505 0.85866,-0.700949 1.35516,-0.449775 0.59581,0.28622 0.74184,1.109834 0.28623,1.588816 z"
         id="path115"
         fill="url(#linearGradient-26)"
         style="fill:url(#linearGradient-26);fill-rule:evenodd;stroke:none;stroke-width:1" />
      <path
         d="m 127.33894,18.823633 -6.19755,1.711482 c -0.15187,0.04089 -0.25117,-0.175237 -0.11098,-0.257015 0,0 5.51996,-3.288615 5.51996,-3.288615 0.47898,-0.286221 1.09816,-0.128508 1.37854,0.350474 0.34463,0.554917 0.035,1.320119 -0.59581,1.489515 v 0 z"
         id="path116"
         fill="url(#linearGradient-27)"
         style="fill:url(#linearGradient-27);fill-rule:evenodd;stroke:none;stroke-width:1" />
      <path
         d="m 114.75692,4.7462545 -1.41358,10.1462265 c -0.0117,0.07594 -0.0818,0.128507 -0.15771,0.116825 -0.0701,-0.01168 -0.11683,-0.0701 -0.12267,-0.134349 l -0.2979,-10.239686 c -0.0175,-0.5549174 0.42057,-1.016375 0.96964,-1.0280575 0.61333,-0.023365 1.10984,0.5315524 1.02222,1.139041 z"
         id="path117"
         fill="url(#linearGradient-28)"
         style="fill:url(#linearGradient-28);fill-rule:evenodd;stroke:none;stroke-width:1" />
      <path
         d="m 107.51379,9.886542 1.61218,5.701046 c 0.0467,0.151872 -0.1694,0.251173 -0.25118,0.110984 0,0 -3.17763,-4.994257 -3.17763,-4.994257 -0.2979,-0.467299 -0.15771,-1.0923111 0.30959,-1.3902141 0.55492,-0.3679979 1.34348,-0.064254 1.51288,0.5782823 v 0 z"
         id="path118"
         fill="url(#linearGradient-29)"
         style="fill:url(#linearGradient-29);fill-rule:evenodd;stroke:none;stroke-width:1" />
      <path
         d="m 103.05692,13.490584 3.14843,4.059659 c 0.0993,0.122666 -0.0584,0.292062 -0.18692,0.204444 0,0 -4.31083,-2.797952 -4.31083,-2.797952 -0.4673,-0.303745 -0.60165,-0.928757 -0.2979,-1.401897 0.36215,-0.584123 1.24418,-0.61333 1.64722,-0.0701 v 0 z"
         id="path119"
         fill="url(#linearGradient-30)"
         style="fill:url(#linearGradient-30);fill-rule:evenodd;stroke:none;stroke-width:1" />
      <path
         d="m 94.219133,17.935765 9.638037,3.446329 c 0.15188,0.05841 0.0993,0.297903 -0.0701,0.268697 0,0 -10.076134,-1.781577 -10.076134,-1.781577 -0.543235,-0.09346 -0.911233,-0.61333 -0.811932,-1.162406 0.0993,-0.607489 0.747678,-0.981328 1.325961,-0.771043 v 0 z"
         id="path120"
         fill="url(#linearGradient-31)"
         style="fill:url(#linearGradient-31);fill-rule:evenodd;stroke:none;stroke-width:1" />
      <path
         d="m 97.899112,23.315543 5.619268,0.771043 c 0.15771,0.02336 0.16355,0.251173 0,0.280379 0,0 -5.595903,0.946281 -5.595903,0.946281 -0.549076,0.09346 -1.068946,-0.28038 -1.162406,-0.829456 -0.122666,-0.660059 0.47314,-1.267548 1.1332,-1.168247 v 0 z"
         id="path121"
         fill="url(#linearGradient-32)"
         style="fill:url(#linearGradient-32);fill-rule:evenodd;stroke:none;stroke-width:1" />
      <path
         d="m 94.785733,31.703558 9.614677,-3.767597 c 0.0701,-0.02921 0.15187,0.0058 0.18108,0.08178 0.0234,0.06425 0,0.134348 -0.0584,0.169396 l -8.85531,5.309683 c -0.47314,0.286221 -1.092311,0.128507 -1.372691,-0.344633 -0.321268,-0.525711 -0.07594,-1.226659 0.496505,-1.448626 v 0 z"
         id="path122"
         fill="url(#linearGradient-33)"
         style="fill:url(#linearGradient-33);fill-rule:evenodd;stroke:none;stroke-width:1" />
      <path
         d="m 100.4751,40.699061 7.09126,-9.071439 c 0.0467,-0.05841 0.13435,-0.07009 0.1986,-0.02336 0.0526,0.04089 0.0701,0.116824 0.035,0.181078 l -5.666,10.023561 c -0.27454,0.478981 -0.88203,0.648377 -1.36685,0.37968 -0.53155,-0.292062 -0.67174,-1.016375 -0.2979,-1.489515 v 0 z"
         id="path123"
         fill="url(#linearGradient-34)"
         style="fill:url(#linearGradient-34);fill-rule:evenodd;stroke:none;stroke-width:1" />
      <path
         d="m 100.80805,32.930217 4.78397,-3.090014 c 0.12851,-0.08762 0.28622,0.08762 0.18692,0.210285 0,0 -3.64493,4.380927 -3.64493,4.380927 -0.35632,0.42641 -0.99301,0.484822 -1.41942,0.128507 -0.51987,-0.420569 -0.4673,-1.27339 0.0993,-1.623864 v 0 z"
         id="path124"
         fill="url(#linearGradient-35)"
         style="fill:url(#linearGradient-35);fill-rule:evenodd;stroke:none;stroke-width:1" />
      <path
         d="m 108.60026,44.741196 1.65891,-5.438191 c 0.0467,-0.151872 0.27453,-0.116824 0.27453,0.04089 0,0 0.0409,5.683522 0.0409,5.683522 0,0.554918 -0.44393,1.010534 -1.00469,1.016375 -0.67174,0.01752 -1.17993,-0.671742 -0.97549,-1.302595 v 0 z"
         id="path125"
         fill="url(#linearGradient-36)"
         style="fill:url(#linearGradient-36);fill-rule:evenodd;stroke:none;stroke-width:1" />
      <path
         d="m 108.36077,38.409296 2.11452,-5.48492 c 0.0526,-0.146031 0.28622,-0.0993 0.2687,0.05841 0,0 -0.43809,5.864601 -0.43809,5.864601 -0.0409,0.554917 -0.52571,0.975486 -1.08063,0.928756 -0.6659,-0.04089 -1.11568,-0.753519 -0.8645,-1.366849 v 0 z"
         id="path126"
         fill="url(#linearGradient-37)"
         style="fill:url(#linearGradient-37);fill-rule:evenodd;stroke:none;stroke-width:1" />
      <path
         d="m 111.67859,41.966609 0.92875,-8.779377 c 0.006,-0.07594 0.0759,-0.134349 0.15188,-0.122666 0.0701,0.0058 0.11682,0.05841 0.12266,0.128507 l 0.78857,8.79106 c 0.0467,0.549076 -0.35632,1.03974 -0.91123,1.086469 -0.61917,0.06425 -1.15657,-0.484822 -1.08647,-1.103993 v 0 z"
         id="path127"
         fill="url(#linearGradient-38)"
         style="fill:url(#linearGradient-38);fill-rule:evenodd;stroke:none;stroke-width:1" />
      <path
         d="m 118.24414,42.655875 -2.62272,-9.953466 c -0.0175,-0.07594 0.0234,-0.151872 0.0993,-0.169396 0.0643,-0.01752 0.13435,0.01752 0.16356,0.07594 l 4.24657,9.375184 c 0.22781,0.502346 0,1.098152 -0.50234,1.32596 -0.55492,0.257014 -1.2325,-0.06425 -1.38437,-0.654218 v 0 z"
         id="path128"
         fill="url(#linearGradient-39)"
         style="fill:url(#linearGradient-39);fill-rule:evenodd;stroke:none;stroke-width:1" />
      <path
         d="m 119.78038,37.200161 -2.14373,-5.169494 c -0.0643,-0.146031 0.14019,-0.268697 0.23949,-0.146031 0,0 3.61572,4.269943 3.61572,4.269943 0.36216,0.42641 0.30959,1.063105 -0.11682,1.425262 -0.50819,0.443934 -1.33764,0.23949 -1.58298,-0.385522 v 0 z"
         id="path129"
         fill="url(#linearGradient-40)"
         style="fill:url(#linearGradient-40);fill-rule:evenodd;stroke:none;stroke-width:1" />
      <path
         d="m 127.87633,27.492027 -6.18586,-1.822466 c -0.0759,-0.02337 -0.11683,-0.0993 -0.0935,-0.175237 0.0175,-0.06425 0.0759,-0.0993 0.1402,-0.0993 l 6.44288,0.122666 c 0.55492,0.01168 0.99885,0.467299 0.98717,1.028057 0,0.654219 -0.6659,1.139041 -1.29092,0.946281 z"
         id="path130"
         fill="url(#linearGradient-41)"
         style="fill:url(#linearGradient-41);fill-rule:evenodd;stroke:none;stroke-width:1" />
      <path
         d="m 97.829017,37.591523 3.972043,-2.949824 c 0.0642,-0.04673 0.15187,-0.03505 0.1986,0.02921 0.035,0.04673 0.035,0.110984 0,0.163555 l -2.722017,4.129754 c -0.309585,0.467299 -0.934597,0.595806 -1.401896,0.28622 -0.584124,-0.367998 -0.607489,-1.261707 -0.04673,-1.658911 v 0 z"
         id="path131"
         fill="url(#linearGradient-42)"
         style="fill:url(#linearGradient-42);fill-rule:evenodd;stroke:none;stroke-width:1" />
      <path
         d="m 124.86226,31.277147 -3.96036,-2.949824 c -0.0643,-0.04673 -0.0759,-0.134348 -0.0292,-0.198602 0.035,-0.04673 0.0993,-0.07009 0.15187,-0.05257 l 4.73141,1.413579 c 0.53739,0.157714 0.84113,0.724314 0.68342,1.261707 -0.18692,0.665901 -1.0339,0.940439 -1.57713,0.525711 v 0 z"
         id="path132"
         fill="url(#linearGradient-43)"
         style="fill:url(#linearGradient-43);fill-rule:evenodd;stroke:none;stroke-width:1" />
      <path
         d="m 119.48248,22.894974 c 0.41473,0 0.75352,0.327109 0.75352,0.730154 v 0.192761 c 0,4.0655 -3.32367,7.459258 -7.51767,7.523512 -4.28163,0.06425 -7.76885,-3.276933 -7.76885,-7.406687 0,-4.129754 3.41713,-7.406687 7.64034,-7.406687 1.71732,0 3.36455,0.467299 5.05851,1.775736 l -1.50704,2.377383 c -1.10983,-0.94628 -2.38322,-1.384373 -3.54563,-1.384373 -2.64024,0 -4.78397,2.073638 -4.78397,4.6321 0,2.558461 2.13789,4.6321 4.78397,4.6321 1.99186,0 3.8669,-1.121518 4.41597,-2.856365 0.0584,-0.19276 0.12267,-0.455616 0.12267,-0.455616 h -4.98257 l 1.48951,-2.359859 h 5.84124 z"
         id="path134"
         fill="#ff1e23"
         style="fill-rule:evenodd;stroke:none;stroke-width:1" />
    </g>
    <path
       d="m 359.31774,362.87174 c 0,-8.40489 6.46875,-14.37836 14.81361,-14.37836 8.34487,0 14.70856,5.6733 14.70856,14.25829 0,8.58499 -6.39371,14.25829 -14.66351,14.25829 -8.73508,0 -14.84365,-5.95847 -14.84365,-14.15323 m 23.59373,0.03 c 0,-5.44816 -3.87226,-9.06527 -8.78012,-9.06527 -5.34311,0 -8.88516,4.05236 -8.88516,9.14032 0,5.08795 3.58709,8.81012 8.9302,8.81012 4.96789,0 8.73508,-4.1274 8.73508,-8.88517 m 47.6827,13.37278 h 5.79335 v -22.10786 h 8.53998 V 349.2288 H 422.0692 v 4.92286 h 8.53998 z M 330.65107,350.7597 c 0,0 -1.81605,-2.47644 -6.37869,-1.53089 v 27.03071 h 5.79336 v -17.26003 l 7.57942,10.79127 c 0.58534,0.82548 1.50085,1.21571 2.40139,1.21571 0.90052,0 1.81604,-0.40524 2.40138,-1.21571 l 7.57943,-10.79127 v 17.26003 c 0,0 5.79334,0 5.79334,0 v -27.03071 c -4.56264,-0.94555 -6.37869,1.53089 -6.37869,1.53089 -0.81048,1.17068 -9.39546,13.52286 -9.39546,13.52286 0,0 -8.58499,-12.36719 -9.39548,-13.52286 z m -44.18568,25.49982 h 5.73335 l -11.10647,-27.03071 h -0.0601 c -1.98114,-0.58534 -4.33752,0.52531 -5.16298,2.43142 l -10.46109,24.5993 h 5.59826 l 1.95113,-4.71275 h 11.64678 l 1.84606,4.71275 z m -11.63175,-9.26038 4.06736,-9.81571 h 0.075 l 3.85725,9.81571 h -7.98465 z m -21.70262,-6.28865 -2.86668,4.54764 h 9.60558 c 0,0 -0.11999,0.5103 -0.24024,0.88552 -1.06559,3.34694 -4.6677,5.5082 -8.50994,5.5082 -5.08796,0 -9.21536,-3.99232 -9.21536,-8.93019 0,-4.93788 4.1274,-8.9302 9.21536,-8.9302 2.25132,0 4.69773,0.84049 6.844,2.67155 l 2.91169,-4.57765 c -3.2568,-2.52147 -6.43864,-3.42199 -9.75559,-3.42199 -8.13473,0 -14.73856,6.39371 -14.73856,14.27329 0,7.87958 6.7239,14.40838 14.9787,14.2733 8.08971,-0.12007 14.49844,-6.67888 14.49844,-14.51344 v -0.37522 c 0,-0.78045 -0.64539,-1.41081 -1.45584,-1.41081 z M 412.9439,349.2138 v 17.96544 l -13.71795,-16.10436 c -0.78047,-0.78045 -3.16684,-2.86667 -6.67888,-1.87609 v 27.03071 h 5.79334 v -17.96544 l 13.70298,16.08935 c 0.78044,0.78046 3.16683,2.86667 6.67888,1.87609 v -27.03071 h -5.77837 z m -119.0642,0 v 17.41012 c 0,5.98848 4.72775,10.35602 12.09703,10.35602 7.77453,0 12.62235,-4.62269 12.62235,-10.07085 v -17.7103 h -5.79338 v 15.69913 c 0,3.90226 -1.57592,7.09913 -6.66388,7.09913 -5.08793,0 -6.46874,-3.61711 -6.46874,-6.94905 v -15.8342 z"
       id="path133-0"
       fill="#ff1e23"
       fill-rule="nonzero"
       style="font-variation-settings:normal;opacity:1;vector-effect:none;fill:#ff1e23;fill-opacity:1;stroke:none;stroke-width:2.03189;stroke-linecap:butt;stroke-linejoin:miter;stroke-miterlimit:4;stroke-dasharray:none;stroke-dashoffset:0;stroke-opacity:1;-inkscape-stroke:none;stop-color:#000000;stop-opacity:1" />
  </g>
</svg>
