<?xml version="1.0" encoding="UTF-8"?><svg id="Calque_3" xmlns="http://www.w3.org/2000/svg" viewBox="0 0 2404 828.1"><path d="M219.2,351.4c60.6,26,125.5,50.4,194.8,72.2V.1h219.2V828.1h-219.2v-238.8c-67.4-16-132.5-34.4-194.8-55.2v293.9H0V0H219.3V351.4h-.1Z"/><path d="M1954.1,483.1l134.2,345h-234.4l-86.4-262.2h0c-29.4,8.2-59.3,15.9-89.7,23.1v239h-220.4V0h324.2C1979.8,0,2075.9,95.5,2074.3,258.5c-.8,75.5-29.7,164.8-120.2,224.6Zm-208.7-336.1c68.7,0,109.2,34.8,109.3,106.8-.1,116.5-77.6,149.2-144.1,167.8l-32.9,8.6V147h67.7Z" style="fill-rule:evenodd;"/><path d="M1358.5,643.8l-41.4-150.7L1181.7,.1h-274l-156.7,573.3-19.2,70.3-50.4,184.4h219.2l36.3-169.5c35.8,1.3,71.9,2,108.3,2s71.7-.7,107.1-2l36.3,169.4h220.4l-50.5-184.2Zm-313.2-137.3c-25.5,0-50.6-.4-75.4-1.3l74.8-348.9,74.8,349.1c-24.5,.7-49.3,1.1-74.2,1.1Z"/><path d="M2403.9,.1h-219.3V219.3h219.3V.1Z"/><path d="M2184.7,828.1h219.3V246.7c-63.1,54.9-136.7,105.8-219.3,151.7v429.7Z"/></svg>