<?xml version="1.0" encoding="utf-8"?>
<!-- Generator: Adobe Illustrator 19.2.1, SVG Export Plug-In . SVG Version: 6.00 Build 0)  -->
<svg version="1.1" id="layer" xmlns="http://www.w3.org/2000/svg" xmlns:xlink="http://www.w3.org/1999/xlink" x="0px" y="0px"
	 viewBox="0 0 652 652" style="enable-background:new 0 0 652 652;" xml:space="preserve">
<path d="M56.5,315.6l-27.1-14.3c-0.2-0.1-0.2-0.3-0.2-0.5c15.4-28.3,51-39,79.7-23.9c28.7,15.1,39.6,50.4,24.6,78.8
	c-0.1,0.2-0.3,0.3-0.5,0.2l-27.1-14.3l9.2,30l-15.2,4.6l-12.8-41.6L60.6,384l-14.1-7.4L73,327.1L31,339.9l-4.7-15.1L56.5,315.6
	L56.5,315.6z M196.5,306.7h11.6v26.7c0,2.8-0.5,5.3-1.4,7.5c-1,2.2-2.3,4-4,5.4s-3.7,2.5-5.9,3.2c-2.3,0.7-4.7,1.1-7.3,1.1
	c-2.9,0-5.5-0.4-7.8-1.2c-2.3-0.8-4.3-1.9-5.9-3.5c-1.6-1.5-2.9-3.4-3.7-5.6c-0.9-2.2-1.3-4.8-1.3-7.6l11.9-2.1
	c-0.2,1.6-0.2,3,0,4.2c0.2,1.2,0.6,2.3,1.2,3.1c0.6,0.9,1.4,1.5,2.3,2c0.9,0.5,2,0.7,3.3,0.7c1.2,0,2.2-0.2,3.1-0.5
	c0.9-0.4,1.6-0.9,2.2-1.6c0.6-0.7,1-1.6,1.3-2.6c0.3-1,0.4-2.2,0.4-3.5V306.7z M254.4,339.9v9.8h-37v-43.1h36.4v9.8h-25v6.5h18.6
	v9.7h-18.6v7.2H254.4z M262.2,306.7h11.6v32.8h24.1v10.3h-35.7V306.7z M305.4,306.7H317v32.8h24.1v10.3h-35.7V306.7z M359.1,321.6
	l8.9-14.8h12.8l-16.5,25.4v17.7H353v-17.7l-16.5-25.4H350L359.1,321.6z M380.1,343.1l7.1-8.2c0.9,1,1.8,2,2.9,2.8s2.2,1.5,3.4,2
	c1.2,0.5,2.5,0.9,3.8,1.2c1.3,0.3,2.6,0.4,4,0.4c1.1,0,2.2-0.1,3.1-0.2c0.9-0.2,1.7-0.4,2.4-0.7c0.7-0.3,1.2-0.7,1.5-1.2
	c0.4-0.5,0.5-1,0.5-1.6c0-0.5-0.1-1-0.4-1.4c-0.3-0.4-0.6-0.7-1-0.9c-0.4-0.2-0.8-0.4-1.2-0.5c-0.4-0.1-1-0.2-1.7-0.4l-10-2
	c-1.8-0.4-3.5-0.9-5-1.5c-1.5-0.7-2.8-1.5-3.9-2.5c-1.1-1-1.9-2.2-2.6-3.6c-0.6-1.4-0.9-3-0.9-4.9c0-2.1,0.4-4,1.3-5.7
	c0.8-1.7,2.1-3.2,3.7-4.4c1.6-1.3,3.5-2.2,5.7-2.9c2.2-0.7,4.7-1,7.4-1c2.1,0,4,0.2,5.8,0.5c1.8,0.4,3.5,0.9,5.1,1.6
	c1.6,0.7,3,1.5,4.4,2.5c1.4,1,2.6,2.1,3.8,3.3l-7.7,7.2c-0.7-0.9-1.4-1.7-2.1-2.4c-0.7-0.7-1.5-1.3-2.4-1.8
	c-0.9-0.5-1.9-0.9-3.1-1.2c-1.1-0.3-2.4-0.4-3.8-0.4c-0.9,0-1.7,0.1-2.5,0.3c-0.8,0.2-1.5,0.4-2.1,0.8c-0.6,0.3-1,0.7-1.4,1.1
	c-0.3,0.4-0.5,0.9-0.5,1.5c0,0.5,0.1,0.9,0.3,1.2c0.2,0.3,0.4,0.6,0.8,0.9c0.3,0.2,0.7,0.4,1.1,0.5c0.4,0.1,0.9,0.3,1.4,0.4l9.6,2
	c2.4,0.5,4.4,1.1,6.1,1.9c1.7,0.8,3.1,1.7,4.2,2.7c1.1,1,1.9,2.3,2.5,3.7c0.5,1.4,0.8,3,0.8,4.8c0,2.2-0.5,4.1-1.5,5.8
	c-1,1.7-2.4,3.2-4.2,4.3c-1.8,1.2-3.8,2.1-6.2,2.7c-2.3,0.6-4.8,0.9-7.5,0.9c-2.3,0-4.5-0.2-6.5-0.5c-2-0.3-3.9-0.8-5.6-1.5
	c-1.8-0.6-3.4-1.4-4.9-2.3C382.8,345.4,381.4,344.3,380.1,343.1z M456.4,349.8h-6.2l-10.6-31.9h-0.3v31.9h-11v-43.1h18.2l7.2,23.7
	h0.2l7-23.7h18.3v43.1h-12v-31.9H467L456.4,349.8z M519.8,349.8l-3.1-8.3h-17l-3.1,8.3h-11.7l17.2-43.1h13l17.2,43.1H519.8z
	 M508,319.4l-5.1,13.4h10.4l-5.1-13.4H508z M565.9,332.1l10.8,3.4c-0.5,2.2-1.3,4.3-2.4,6.1c-1.1,1.8-2.5,3.4-4.3,4.8
	c-1.7,1.3-3.8,2.4-6.1,3.1c-2.3,0.7-4.9,1.1-7.7,1.1c-3.1,0-6-0.5-8.8-1.6c-2.7-1.1-5.1-2.6-7.2-4.6c-2.1-2-3.6-4.4-4.8-7.1
	c-1.1-2.8-1.7-5.8-1.7-9c0-3.2,0.6-6.2,1.7-9c1.1-2.8,2.7-5.1,4.8-7.1c2.1-2,4.4-3.5,7.2-4.6c2.7-1.1,5.7-1.6,8.8-1.6
	c2.6,0,5.1,0.3,7.3,1c2.2,0.6,4.2,1.5,5.8,2.7c1.7,1.2,3.1,2.6,4.3,4.2s2.1,3.5,2.7,5.5l-10.5,4.6c-0.3-1.1-0.7-2.1-1.2-3
	c-0.5-0.9-1.1-1.7-1.9-2.4c-0.8-0.7-1.7-1.3-2.8-1.7c-1.1-0.4-2.4-0.6-3.8-0.6c-1.6,0-3,0.3-4.3,0.9c-1.3,0.6-2.4,1.4-3.3,2.4
	c-0.9,1.1-1.6,2.3-2.1,3.8s-0.7,3.2-0.7,5c0,1.8,0.2,3.5,0.7,5s1.2,2.8,2.1,3.8c0.9,1.1,2,1.9,3.3,2.4c1.3,0.6,2.7,0.9,4.3,0.9
	c1.5,0,2.8-0.2,4-0.6c1.1-0.4,2.1-1,2.9-1.8c0.8-0.8,1.4-1.6,1.9-2.6C565.3,334.3,565.7,333.2,565.9,332.1z M626.3,349.8h-14.1
	l-12.3-18.2l-4.8,5.1v13.1h-11.6v-43.1h11.6v17.4l16.6-17.4h13.5l-17,17.2L626.3,349.8z"/>
</svg>
